<?xml version="1.0" encoding="UTF-8" standalone="no"?><svg xmlns="http://www.w3.org/2000/svg" xmlns:xlink="http://www.w3.org/1999/xlink" contentScriptType="application/ecmascript" contentStyleType="text/css" height="405px" preserveAspectRatio="none" style="width:380px;height:405px;" version="1.1" viewBox="0 0 380 405" width="380px" zoomAndPan="magnify"><defs><filter height="300%" id="f1lfdm9a061nib" width="300%" x="-1" y="-1"><feGaussianBlur result="blurOut" stdDeviation="2.0"/><feColorMatrix in="blurOut" result="blurOut2" type="matrix" values="0 0 0 0 0 0 0 0 0 0 0 0 0 0 0 0 0 0 .4 0"/><feOffset dx="4.0" dy="4.0" in="blurOut2" result="blurOut3"/><feBlend in="SourceGraphic" in2="blurOut3" mode="normal"/></filter></defs><g><ellipse cx="181" cy="20" fill="#000000" filter="url(#f1lfdm9a061nib)" rx="10" ry="10" style="stroke: none; stroke-width: 1.0;"/><rect fill="#F8F8F8" filter="url(#f1lfdm9a061nib)" height="37.6094" rx="12.5" ry="12.5" style="stroke: #383838; stroke-width: 1.5;" width="223" x="69.5" y="50"/><text fill="#000000" font-family="sans-serif" font-size="14" lengthAdjust="spacingAndGlyphs" textLength="203" x="79.5" y="74.5332">Исходная раскладка "ЙЦУКЕН"</text><rect fill="#F8F8F8" filter="url(#f1lfdm9a061nib)" height="37.6094" rx="12.5" ry="12.5" style="stroke: #383838; stroke-width: 1.5;" width="243" x="59.5" y="182.8281"/><text fill="#000000" font-family="sans-serif" font-size="14" lengthAdjust="spacingAndGlyphs" textLength="223" x="69.5" y="207.3613">Алгоритм производных раскладок</text><rect fill="#F8F8F8" filter="url(#f1lfdm9a061nib)" height="37.6094" rx="12.5" ry="12.5" style="stroke: #383838; stroke-width: 1.5;" width="175" x="93.5" y="255.4375"/><text fill="#000000" font-family="sans-serif" font-size="14" lengthAdjust="spacingAndGlyphs" textLength="155" x="103.5" y="279.9707">Алгоритм оптимизации</text><rect fill="#F8F8F8" filter="url(#f1lfdm9a061nib)" height="55.2188" rx="12.5" ry="12.5" style="stroke: #383838; stroke-width: 1.5;" width="219" x="71.5" y="107.6094"/><text fill="#000000" font-family="sans-serif" font-size="14" lengthAdjust="spacingAndGlyphs" textLength="195" x="81.5" y="132.1426">Получение раскладки на вход</text><text fill="#000000" font-family="sans-serif" font-size="14" lengthAdjust="spacingAndGlyphs" textLength="70" x="146" y="149.752">алгоритма</text><polygon fill="#F8F8F8" filter="url(#f1lfdm9a061nib)" points="32,313.0469,330,313.0469,342,325.0469,330,337.0469,32,337.0469,20,325.0469,32,313.0469" style="stroke: #383838; stroke-width: 1.5;"/><text fill="#000000" font-family="sans-serif" font-size="14" lengthAdjust="spacingAndGlyphs" textLength="17" x="185" y="351.5801">Да</text><text fill="#000000" font-family="sans-serif" font-size="14" lengthAdjust="spacingAndGlyphs" textLength="298" x="32" y="330.7754">Условие завершения алгоритма выполнено?</text><text fill="#000000" font-family="sans-serif" font-size="14" lengthAdjust="spacingAndGlyphs" textLength="24" x="342" y="321.9707">Нет</text><ellipse cx="181" cy="383.0469" fill="#FFFFFF" filter="url(#f1lfdm9a061nib)" rx="11" ry="11" style="stroke: #000000; stroke-width: 1.0;"/><ellipse cx="181" cy="383.0469" fill="#000000" rx="6" ry="6" style="stroke: #7F7F7F; stroke-width: 1.0;"/><line style="stroke: #383838; stroke-width: 1.5;" x1="181" x2="181" y1="30" y2="50"/><polygon fill="#383838" points="177,40,181,50,185,40,181,44" style="stroke: #383838; stroke-width: 1.0;"/><line style="stroke: #383838; stroke-width: 1.5;" x1="181" x2="181" y1="220.4375" y2="255.4375"/><polygon fill="#383838" points="177,245.4375,181,255.4375,185,245.4375,181,249.4375" style="stroke: #383838; stroke-width: 1.0;"/><line style="stroke: #383838; stroke-width: 1.5;" x1="181" x2="181" y1="162.8281" y2="182.8281"/><polygon fill="#383838" points="177,172.8281,181,182.8281,185,172.8281,181,176.8281" style="stroke: #383838; stroke-width: 1.0;"/><line style="stroke: #383838; stroke-width: 1.5;" x1="342" x2="354" y1="325.0469" y2="325.0469"/><polygon fill="#383838" points="350,240.1328,354,230.1328,358,240.1328,354,236.1328" style="stroke: #383838; stroke-width: 1.5;"/><line style="stroke: #383838; stroke-width: 1.5;" x1="354" x2="354" y1="135.2188" y2="325.0469"/><line style="stroke: #383838; stroke-width: 1.5;" x1="354" x2="290.5" y1="135.2188" y2="135.2188"/><polygon fill="#383838" points="300.5,131.2188,290.5,135.2188,300.5,139.2188,296.5,135.2188" style="stroke: #383838; stroke-width: 1.0;"/><line style="stroke: #383838; stroke-width: 1.5;" x1="181" x2="181" y1="293.0469" y2="313.0469"/><polygon fill="#383838" points="177,303.0469,181,313.0469,185,303.0469,181,307.0469" style="stroke: #383838; stroke-width: 1.0;"/><line style="stroke: #383838; stroke-width: 1.5;" x1="181" x2="181" y1="87.6094" y2="107.6094"/><polygon fill="#383838" points="177,97.6094,181,107.6094,185,97.6094,181,101.6094" style="stroke: #383838; stroke-width: 1.0;"/><line style="stroke: #383838; stroke-width: 1.5;" x1="181" x2="181" y1="337.0469" y2="372.0469"/><polygon fill="#383838" points="177,362.0469,181,372.0469,185,362.0469,181,366.0469" style="stroke: #383838; stroke-width: 1.0;"/><!--MD5=[80fd645236e7486f323a2333f7f4cc23]
@startuml "Короткий алгоритм"
skinparam monochrome true
skinparam wrapWidth 250
skinparam defaultTextAlignment center
skinparam defaultFontSize 14
skinparam noteFontSize 14
start
:Исходная раскладка "ЙЦУКЕН";
repeat:Получение раскладки на вход алгоритма;
:Алгоритм производных раскладок;
:Алгоритм оптимизации;
repeat while (Условие завершения алгоритма выполнено?) is (Нет) not (Да)
stop
@enduml

PlantUML version 1.2020.10(Sun May 17 12:35:57 MSK 2020)
(GPL source distribution)
Java Runtime: Java(TM) SE Runtime Environment
JVM: Java HotSpot(TM) 64-Bit Server VM
Java Version: 1.8.0_231-b11
Operating System: Windows 10
Default Encoding: Cp1251
Language: ru
Country: RU
--></g></svg>