<?xml version="1.0" encoding="UTF-8" standalone="no"?><svg xmlns="http://www.w3.org/2000/svg" xmlns:xlink="http://www.w3.org/1999/xlink" contentScriptType="application/ecmascript" contentStyleType="text/css" height="2000px" preserveAspectRatio="none" style="width:1006px;height:2000px;" version="1.1" viewBox="0 0 1006 2000" width="1006px" zoomAndPan="magnify"><defs><filter height="300%" id="f1t29d3bv7uts1" width="300%" x="-1" y="-1"><feGaussianBlur result="blurOut" stdDeviation="2.0"/><feColorMatrix in="blurOut" result="blurOut2" type="matrix" values="0 0 0 0 0 0 0 0 0 0 0 0 0 0 0 0 0 0 .4 0"/><feOffset dx="4.0" dy="4.0" in="blurOut2" result="blurOut3"/><feBlend in="SourceGraphic" in2="blurOut3" mode="normal"/></filter></defs><g><ellipse cx="374" cy="20" fill="#000000" filter="url(#f1t29d3bv7uts1)" rx="10" ry="10" style="stroke: none; stroke-width: 1.0;"/><rect fill="#FEFECE" filter="url(#f1t29d3bv7uts1)" height="37.6094" rx="12.5" ry="12.5" style="stroke: #A80036; stroke-width: 1.5;" width="213" x="267.5" y="50"/><text fill="#000000" font-family="sans-serif" font-size="14" lengthAdjust="spacingAndGlyphs" textLength="193" x="277.5" y="74.5332">Исходная раскладка ЙЦУКЕН</text><rect fill="#FFFFFF" filter="url(#f1t29d3bv7uts1)" height="740.3359" style="stroke: #000000; stroke-width: 2.0;" width="320" x="220" y="172.8281"/><path d="M453,173.8281 L453,183.4375 L443,193.4375 L220,193.4375 " fill="none" style="stroke: #000000; stroke-width: 2.0;"/><text fill="#000000" font-family="sans-serif" font-size="14" lengthAdjust="spacingAndGlyphs" textLength="223" x="223" y="188.3613">Алгоритм производных раскладок</text><rect fill="#FEFECE" filter="url(#f1t29d3bv7uts1)" height="55.2188" rx="12.5" ry="12.5" style="stroke: #A80036; stroke-width: 1.5;" width="263" x="242.5" y="210.4375"/><text fill="#000000" font-family="sans-serif" font-size="14" lengthAdjust="spacingAndGlyphs" textLength="239" x="252.5" y="234.9707">Сгенерировать случайное число X в</text><text fill="#000000" font-family="sans-serif" font-size="14" lengthAdjust="spacingAndGlyphs" textLength="102" x="323" y="252.5801">интервале [1;3]</text><rect fill="#FEFECE" filter="url(#f1t29d3bv7uts1)" height="55.2188" rx="12.5" ry="12.5" style="stroke: #A80036; stroke-width: 1.5;" width="264" x="242" y="336.4609"/><text fill="#000000" font-family="sans-serif" font-size="14" lengthAdjust="spacingAndGlyphs" textLength="240" x="252" y="360.9941">Сгенерировать случайное число Y в</text><text fill="#000000" font-family="sans-serif" font-size="14" lengthAdjust="spacingAndGlyphs" textLength="110" x="319" y="378.6035">интервале [1;12]</text><rect fill="#FEFECE" filter="url(#f1t29d3bv7uts1)" height="55.2188" rx="12.5" ry="12.5" style="stroke: #A80036; stroke-width: 1.5;" width="253" x="247.5" y="426.6797"/><text fill="#000000" font-family="sans-serif" font-size="14" lengthAdjust="spacingAndGlyphs" textLength="207" x="268.5" y="451.2129">Циклично сдвинуть Y колонку и</text><text fill="#000000" font-family="sans-serif" font-size="14" lengthAdjust="spacingAndGlyphs" textLength="233" x="257.5" y="468.8223">получить все возможные варианты</text><polygon fill="#FEFECE" filter="url(#f1t29d3bv7uts1)" points="354,285.6563,394,285.6563,406,297.6563,394,309.6563,354,309.6563,342,297.6563,354,285.6563" style="stroke: #A80036; stroke-width: 1.5;"/><text fill="#000000" font-family="sans-serif" font-size="14" lengthAdjust="spacingAndGlyphs" textLength="17" x="378" y="324.1895">Да</text><text fill="#000000" font-family="sans-serif" font-size="14" lengthAdjust="spacingAndGlyphs" textLength="40" x="354" y="303.3848">X == 1</text><text fill="#000000" font-family="sans-serif" font-size="14" lengthAdjust="spacingAndGlyphs" textLength="24" x="406" y="294.5801">Нет</text><polygon fill="#FEFECE" filter="url(#f1t29d3bv7uts1)" points="374,501.8984,386,513.8984,374,525.8984,362,513.8984,374,501.8984" style="stroke: #A80036; stroke-width: 1.5;"/><rect fill="#FEFECE" filter="url(#f1t29d3bv7uts1)" height="72.8281" rx="12.5" ry="12.5" style="stroke: #A80036; stroke-width: 1.5;" width="268" x="240" y="596.7031"/><text fill="#000000" font-family="sans-serif" font-size="14" lengthAdjust="spacingAndGlyphs" textLength="231" x="256.5" y="621.2363">Циклично сдвинуть Y ряд на левой</text><text fill="#000000" font-family="sans-serif" font-size="14" lengthAdjust="spacingAndGlyphs" textLength="244" x="250" y="638.8457">половине и получить все возможные</text><text fill="#000000" font-family="sans-serif" font-size="14" lengthAdjust="spacingAndGlyphs" textLength="64" x="342" y="656.4551">варианты</text><polygon fill="#FEFECE" filter="url(#f1t29d3bv7uts1)" points="354,545.8984,394,545.8984,406,557.8984,394,569.8984,354,569.8984,342,557.8984,354,545.8984" style="stroke: #A80036; stroke-width: 1.5;"/><text fill="#000000" font-family="sans-serif" font-size="14" lengthAdjust="spacingAndGlyphs" textLength="17" x="378" y="584.4316">Да</text><text fill="#000000" font-family="sans-serif" font-size="14" lengthAdjust="spacingAndGlyphs" textLength="40" x="354" y="563.627">X == 2</text><text fill="#000000" font-family="sans-serif" font-size="14" lengthAdjust="spacingAndGlyphs" textLength="24" x="406" y="554.8223">Нет</text><polygon fill="#FEFECE" filter="url(#f1t29d3bv7uts1)" points="374,689.5313,386,701.5313,374,713.5313,362,701.5313,374,689.5313" style="stroke: #A80036; stroke-width: 1.5;"/><rect fill="#FEFECE" filter="url(#f1t29d3bv7uts1)" height="72.8281" rx="12.5" ry="12.5" style="stroke: #A80036; stroke-width: 1.5;" width="268" x="240" y="784.3359"/><text fill="#000000" font-family="sans-serif" font-size="14" lengthAdjust="spacingAndGlyphs" textLength="239" x="252.5" y="808.8691">Циклично сдвинуть Y ряд на правой</text><text fill="#000000" font-family="sans-serif" font-size="14" lengthAdjust="spacingAndGlyphs" textLength="244" x="250" y="826.4785">половине и получить все возможные</text><text fill="#000000" font-family="sans-serif" font-size="14" lengthAdjust="spacingAndGlyphs" textLength="64" x="342" y="844.0879">варианты</text><polygon fill="#FEFECE" filter="url(#f1t29d3bv7uts1)" points="354,733.5313,394,733.5313,406,745.5313,394,757.5313,354,757.5313,342,745.5313,354,733.5313" style="stroke: #A80036; stroke-width: 1.5;"/><text fill="#000000" font-family="sans-serif" font-size="14" lengthAdjust="spacingAndGlyphs" textLength="17" x="378" y="772.0645">Да</text><text fill="#000000" font-family="sans-serif" font-size="14" lengthAdjust="spacingAndGlyphs" textLength="40" x="354" y="751.2598">X == 3</text><text fill="#000000" font-family="sans-serif" font-size="14" lengthAdjust="spacingAndGlyphs" textLength="24" x="406" y="742.4551">Нет</text><polygon fill="#FEFECE" filter="url(#f1t29d3bv7uts1)" points="374,877.1641,386,889.1641,374,901.1641,362,889.1641,374,877.1641" style="stroke: #A80036; stroke-width: 1.5;"/><rect fill="#FFFFFF" filter="url(#f1t29d3bv7uts1)" height="965.0156" style="stroke: #000000; stroke-width: 2.0;" width="958.5" x="10" y="923.1641"/><path d="M175,924.1641 L175,933.7734 L165,943.7734 L10,943.7734 " fill="none" style="stroke: #000000; stroke-width: 2.0;"/><text fill="#000000" font-family="sans-serif" font-size="14" lengthAdjust="spacingAndGlyphs" textLength="155" x="13" y="938.6973">Алгоритм оптимизации</text><rect fill="#FEFECE" filter="url(#f1t29d3bv7uts1)" height="55.2188" rx="12.5" ry="12.5" style="stroke: #A80036; stroke-width: 1.5;" width="228" x="260" y="960.7734"/><text fill="#000000" font-family="sans-serif" font-size="14" lengthAdjust="spacingAndGlyphs" textLength="204" x="270" y="985.3066">Выбор раскладки с наилучшим</text><text fill="#000000" font-family="sans-serif" font-size="14" lengthAdjust="spacingAndGlyphs" textLength="188" x="280" y="1002.916">целевым параметром Score</text><polygon fill="#FEFECE" filter="url(#f1t29d3bv7uts1)" points="172.5,1036.9922,575.5,1036.9922,587.5,1048.9922,575.5,1060.9922,172.5,1060.9922,160.5,1048.9922,172.5,1036.9922" style="stroke: #A80036; stroke-width: 1.5;"/><text fill="#000000" font-family="sans-serif" font-size="14" lengthAdjust="spacingAndGlyphs" textLength="403" x="172.5" y="1054.7207">Целевое значение Score у раскладки меньше минимального</text><text fill="#000000" font-family="sans-serif" font-size="14" lengthAdjust="spacingAndGlyphs" textLength="24" x="136.5" y="1045.916">Нет</text><text fill="#000000" font-family="sans-serif" font-size="14" lengthAdjust="spacingAndGlyphs" textLength="17" x="587.5" y="1045.916">Да</text><rect fill="#FEFECE" filter="url(#f1t29d3bv7uts1)" height="72.8281" rx="12.5" ry="12.5" style="stroke: #A80036; stroke-width: 1.5;" width="257" x="22" y="1070.9922"/><text fill="#000000" font-family="sans-serif" font-size="14" lengthAdjust="spacingAndGlyphs" textLength="233" x="32" y="1095.5254">Количество итераций, где целевое</text><text fill="#000000" font-family="sans-serif" font-size="14" lengthAdjust="spacingAndGlyphs" textLength="157" x="70" y="1113.1348">значение Score больше</text><text fill="#000000" font-family="sans-serif" font-size="14" lengthAdjust="spacingAndGlyphs" textLength="121" x="90" y="1130.7441">минимального + 1</text><rect fill="#FEFECE" filter="url(#f1t29d3bv7uts1)" height="37.6094" rx="12.5" ry="12.5" style="stroke: #A80036; stroke-width: 1.5;" width="246" x="474.5" y="1070.9922"/><text fill="#000000" font-family="sans-serif" font-size="14" lengthAdjust="spacingAndGlyphs" textLength="226" x="484.5" y="1095.5254">Обновить минимальное значение</text><rect fill="#FEFECE" filter="url(#f1t29d3bv7uts1)" height="72.8281" rx="12.5" ry="12.5" style="stroke: #A80036; stroke-width: 1.5;" width="257" x="469" y="1143.6016"/><text fill="#000000" font-family="sans-serif" font-size="14" lengthAdjust="spacingAndGlyphs" textLength="233" x="479" y="1168.1348">Количество итераций, где целевое</text><text fill="#000000" font-family="sans-serif" font-size="14" lengthAdjust="spacingAndGlyphs" textLength="157" x="517" y="1185.7441">значение Score больше</text><text fill="#000000" font-family="sans-serif" font-size="14" lengthAdjust="spacingAndGlyphs" textLength="125" x="535" y="1203.3535">минимального := 0</text><polygon fill="#FEFECE" filter="url(#f1t29d3bv7uts1)" points="374,1222.4297,386,1234.4297,374,1246.4297,362,1234.4297,374,1222.4297" style="stroke: #A80036; stroke-width: 1.5;"/><path d="M685.5,1287.0156 L685.5,1402.6719 L953.5,1402.6719 L953.5,1297.0156 L943.5,1287.0156 L685.5,1287.0156 " fill="#FBFB77" filter="url(#f1t29d3bv7uts1)" style="stroke: #A80036; stroke-width: 1.0;"/><path d="M943.5,1287.0156 L943.5,1297.0156 L953.5,1297.0156 L943.5,1287.0156 " fill="#FBFB77" style="stroke: #A80036; stroke-width: 1.0;"/><text fill="#000000" font-family="sans-serif" font-size="14" lengthAdjust="spacingAndGlyphs" textLength="210" x="708" y="1306.5488">Если мы получили 10 итераций</text><text fill="#000000" font-family="sans-serif" font-size="14" lengthAdjust="spacingAndGlyphs" textLength="243" x="691.5" y="1324.1582">подряд, где целевое значение Score</text><text fill="#000000" font-family="sans-serif" font-size="14" lengthAdjust="spacingAndGlyphs" textLength="218" x="704" y="1341.7676">не опускается ниже минального,</text><text fill="#000000" font-family="sans-serif" font-size="14" lengthAdjust="spacingAndGlyphs" textLength="199" x="713.5" y="1359.377">выбираем для подачи на вход</text><text fill="#000000" font-family="sans-serif" font-size="14" lengthAdjust="spacingAndGlyphs" textLength="207" x="709.5" y="1376.9863">алгоритма случайную из ранее</text><text fill="#000000" font-family="sans-serif" font-size="14" lengthAdjust="spacingAndGlyphs" textLength="153" x="738.5" y="1394.5957">полученных раскладок.</text><rect fill="#FEFECE" filter="url(#f1t29d3bv7uts1)" height="55.2188" rx="12.5" ry="12.5" style="stroke: #A80036; stroke-width: 1.5;" width="229" x="259.5" y="1317.2344"/><text fill="#000000" font-family="sans-serif" font-size="14" lengthAdjust="spacingAndGlyphs" textLength="205" x="269.5" y="1341.7676">Выбор случайной раскладки из</text><text fill="#000000" font-family="sans-serif" font-size="14" lengthAdjust="spacingAndGlyphs" textLength="148" x="300" y="1359.377">пройденных итераций</text><polygon fill="#FEFECE" filter="url(#f1t29d3bv7uts1)" points="106.5,1266.4297,641.5,1266.4297,653.5,1278.4297,641.5,1290.4297,106.5,1290.4297,94.5,1278.4297,106.5,1266.4297" style="stroke: #A80036; stroke-width: 1.5;"/><text fill="#000000" font-family="sans-serif" font-size="14" lengthAdjust="spacingAndGlyphs" textLength="17" x="378" y="1304.9629">Да</text><text fill="#000000" font-family="sans-serif" font-size="14" lengthAdjust="spacingAndGlyphs" textLength="535" x="106.5" y="1284.1582">Количество итераций, где целевое значение Score больше минимального &gt;= 10</text><text fill="#000000" font-family="sans-serif" font-size="14" lengthAdjust="spacingAndGlyphs" textLength="24" x="653.5" y="1275.3535">Нет</text><polygon fill="#FEFECE" filter="url(#f1t29d3bv7uts1)" points="374,1399.2578,386,1411.2578,374,1423.2578,362,1411.2578,374,1399.2578" style="stroke: #A80036; stroke-width: 1.5;"/><path d="M689.5,1472.6484 L689.5,1605.9141 L957.5,1605.9141 L957.5,1482.6484 L947.5,1472.6484 L689.5,1472.6484 " fill="#FBFB77" filter="url(#f1t29d3bv7uts1)" style="stroke: #A80036; stroke-width: 1.0;"/><path d="M947.5,1472.6484 L947.5,1482.6484 L957.5,1482.6484 L947.5,1472.6484 " fill="#FBFB77" style="stroke: #A80036; stroke-width: 1.0;"/><text fill="#000000" font-family="sans-serif" font-size="14" lengthAdjust="spacingAndGlyphs" textLength="218" x="708" y="1492.1816">Если мы получили 100 итераций</text><text fill="#000000" font-family="sans-serif" font-size="14" lengthAdjust="spacingAndGlyphs" textLength="243" x="695.5" y="1509.791">подряд, где целевое значение Score</text><text fill="#000000" font-family="sans-serif" font-size="14" lengthAdjust="spacingAndGlyphs" textLength="218" x="708" y="1527.4004">не опускается ниже минального,</text><text fill="#000000" font-family="sans-serif" font-size="14" lengthAdjust="spacingAndGlyphs" textLength="199" x="717.5" y="1545.0098">выбираем для подачи на вход</text><text fill="#000000" font-family="sans-serif" font-size="14" lengthAdjust="spacingAndGlyphs" textLength="207" x="713.5" y="1562.6191">алгоритма случайную из ранее</text><text fill="#000000" font-family="sans-serif" font-size="14" lengthAdjust="spacingAndGlyphs" textLength="219" x="707.5" y="1580.2285">полученных раскладок, где Score</text><text fill="#000000" font-family="sans-serif" font-size="14" lengthAdjust="spacingAndGlyphs" textLength="216" x="711" y="1597.8379">равен минимальному значению.</text><rect fill="#FEFECE" filter="url(#f1t29d3bv7uts1)" height="90.4375" rx="12.5" ry="12.5" style="stroke: #A80036; stroke-width: 1.5;" width="244" x="252" y="1494.0625"/><text fill="#000000" font-family="sans-serif" font-size="14" lengthAdjust="spacingAndGlyphs" textLength="205" x="269.5" y="1518.5957">Выбор случайной раскладки из</text><text fill="#000000" font-family="sans-serif" font-size="14" lengthAdjust="spacingAndGlyphs" textLength="220" x="262" y="1536.2051">пройденных итераций, у которой</text><text fill="#000000" font-family="sans-serif" font-size="14" lengthAdjust="spacingAndGlyphs" textLength="215" x="264.5" y="1553.8145">Score равняется минимальному</text><text fill="#000000" font-family="sans-serif" font-size="14" lengthAdjust="spacingAndGlyphs" textLength="64" x="342" y="1571.4238">значению</text><polygon fill="#FEFECE" filter="url(#f1t29d3bv7uts1)" points="102.5,1443.2578,645.5,1443.2578,657.5,1455.2578,645.5,1467.2578,102.5,1467.2578,90.5,1455.2578,102.5,1443.2578" style="stroke: #A80036; stroke-width: 1.5;"/><text fill="#000000" font-family="sans-serif" font-size="14" lengthAdjust="spacingAndGlyphs" textLength="17" x="378" y="1481.791">Да</text><text fill="#000000" font-family="sans-serif" font-size="14" lengthAdjust="spacingAndGlyphs" textLength="543" x="102.5" y="1460.9863">Количество итераций, где целевое значение Score больше минимального &gt;= 100</text><text fill="#000000" font-family="sans-serif" font-size="14" lengthAdjust="spacingAndGlyphs" textLength="24" x="657.5" y="1452.1816">Нет</text><polygon fill="#FEFECE" filter="url(#f1t29d3bv7uts1)" points="374,1611.3047,386,1623.3047,374,1635.3047,362,1623.3047,374,1611.3047" style="stroke: #A80036; stroke-width: 1.5;"/><path d="M689.5,1690.3047 L689.5,1841.1797 L958.5,1841.1797 L958.5,1700.3047 L948.5,1690.3047 L689.5,1690.3047 " fill="#FBFB77" filter="url(#f1t29d3bv7uts1)" style="stroke: #A80036; stroke-width: 1.0;"/><path d="M948.5,1690.3047 L948.5,1700.3047 L958.5,1700.3047 L948.5,1690.3047 " fill="#FBFB77" style="stroke: #A80036; stroke-width: 1.0;"/><text fill="#000000" font-family="sans-serif" font-size="14" lengthAdjust="spacingAndGlyphs" textLength="218" x="708.5" y="1709.8379">Если мы получили 300 итераций</text><text fill="#000000" font-family="sans-serif" font-size="14" lengthAdjust="spacingAndGlyphs" textLength="243" x="696" y="1727.4473">подряд, где целевое значение Score</text><text fill="#000000" font-family="sans-serif" font-size="14" lengthAdjust="spacingAndGlyphs" textLength="218" x="708.5" y="1745.0566">не опускается ниже минального,</text><text fill="#000000" font-family="sans-serif" font-size="14" lengthAdjust="spacingAndGlyphs" textLength="211" x="712" y="1762.666">предполагаем, что алгоритм не</text><text fill="#000000" font-family="sans-serif" font-size="14" lengthAdjust="spacingAndGlyphs" textLength="244" x="695.5" y="1780.2754">способен найти более оптимальную</text><text fill="#000000" font-family="sans-serif" font-size="14" lengthAdjust="spacingAndGlyphs" textLength="189" x="723" y="1797.8848">раскладку — следовательно</text><text fill="#000000" font-family="sans-serif" font-size="14" lengthAdjust="spacingAndGlyphs" textLength="198" x="718.5" y="1815.4941">завершаем работу алгоритма</text><text fill="#000000" font-family="sans-serif" font-size="14" lengthAdjust="spacingAndGlyphs" textLength="92" x="773.5" y="1833.1035">оптимизации.</text><rect fill="#FEFECE" filter="url(#f1t29d3bv7uts1)" height="90.4375" rx="12.5" ry="12.5" style="stroke: #A80036; stroke-width: 1.5;" width="267" x="240.5" y="1734.9375"/><text fill="#000000" font-family="sans-serif" font-size="14" font-weight="bold" lengthAdjust="spacingAndGlyphs" textLength="243" x="250.5" y="1759.4707">Условие завершение алогоритма</text><text fill="#000000" font-family="sans-serif" font-size="14" font-weight="bold" lengthAdjust="spacingAndGlyphs" textLength="81" x="333.5" y="1777.0801">выполнено</text><text fill="#000000" font-family="sans-serif" font-size="14" font-style="italic" lengthAdjust="spacingAndGlyphs" textLength="218" x="263" y="1794.6895">Полученная раскладка является</text><text fill="#000000" font-family="sans-serif" font-size="14" font-style="italic" lengthAdjust="spacingAndGlyphs" textLength="161" x="293.5" y="1812.2988">близкой к оптимальной</text><polygon fill="#FEFECE" filter="url(#f1t29d3bv7uts1)" points="102.5,1655.3047,645.5,1655.3047,657.5,1681.7188,645.5,1708.1328,102.5,1708.1328,90.5,1681.7188,102.5,1655.3047" style="stroke: #A80036; stroke-width: 1.5;"/><text fill="#000000" font-family="sans-serif" font-size="14" lengthAdjust="spacingAndGlyphs" textLength="17" x="378" y="1722.666">Да</text><text fill="#000000" font-family="sans-serif" font-size="14" lengthAdjust="spacingAndGlyphs" textLength="543" x="102.5" y="1669.8379">Количество итераций, где целевое значение Score больше минимального &gt;= 300</text><text fill="#000000" font-family="sans-serif" font-size="14" lengthAdjust="spacingAndGlyphs" textLength="8" x="370" y="1687.4473">и</text><text fill="#000000" font-family="sans-serif" font-size="14" lengthAdjust="spacingAndGlyphs" textLength="218" x="265" y="1705.0566">Score &lt;= минимальное значение</text><text fill="#000000" font-family="sans-serif" font-size="14" lengthAdjust="spacingAndGlyphs" textLength="24" x="657.5" y="1678.6426">Нет</text><polygon fill="#FEFECE" filter="url(#f1t29d3bv7uts1)" points="374,1852.1797,386,1864.1797,374,1876.1797,362,1864.1797,374,1852.1797" style="stroke: #A80036; stroke-width: 1.5;"/><rect fill="#FEFECE" filter="url(#f1t29d3bv7uts1)" height="55.2188" rx="12.5" ry="12.5" style="stroke: #A80036; stroke-width: 1.5;" width="219" x="264.5" y="107.6094"/><text fill="#000000" font-family="sans-serif" font-size="14" lengthAdjust="spacingAndGlyphs" textLength="195" x="274.5" y="132.1426">Получение раскладки на вход</text><text fill="#000000" font-family="sans-serif" font-size="14" lengthAdjust="spacingAndGlyphs" textLength="70" x="339" y="149.752">алгоритма</text><polygon fill="#FEFECE" filter="url(#f1t29d3bv7uts1)" points="225,1908.1797,523,1908.1797,535,1920.1797,523,1932.1797,225,1932.1797,213,1920.1797,225,1908.1797" style="stroke: #A80036; stroke-width: 1.5;"/><text fill="#000000" font-family="sans-serif" font-size="14" lengthAdjust="spacingAndGlyphs" textLength="17" x="378" y="1946.7129">Да</text><text fill="#000000" font-family="sans-serif" font-size="14" lengthAdjust="spacingAndGlyphs" textLength="298" x="225" y="1925.9082">Условие завершения алгоритма выполнено?</text><text fill="#000000" font-family="sans-serif" font-size="14" lengthAdjust="spacingAndGlyphs" textLength="24" x="535" y="1917.1035">Нет</text><ellipse cx="374" cy="1978.1797" fill="#FFFFFF" filter="url(#f1t29d3bv7uts1)" rx="11" ry="11" style="stroke: #000000; stroke-width: 1.0;"/><ellipse cx="374" cy="1978.1797" fill="#000000" rx="6" ry="6" style="stroke: #7F7F7F; stroke-width: 1.0;"/><line style="stroke: #A80036; stroke-width: 1.5;" x1="374" x2="374" y1="30" y2="50"/><polygon fill="#A80036" points="370,40,374,50,378,40,374,44" style="stroke: #A80036; stroke-width: 1.0;"/><line style="stroke: #A80036; stroke-width: 1.5;" x1="374" x2="374" y1="391.6797" y2="426.6797"/><polygon fill="#A80036" points="370,416.6797,374,426.6797,378,416.6797,374,420.6797" style="stroke: #A80036; stroke-width: 1.0;"/><line style="stroke: #A80036; stroke-width: 1.5;" x1="374" x2="374" y1="309.6563" y2="336.4609"/><polygon fill="#A80036" points="370,326.4609,374,336.4609,378,326.4609,374,330.4609" style="stroke: #A80036; stroke-width: 1.0;"/><line style="stroke: #A80036; stroke-width: 1.5;" x1="406" x2="516" y1="297.6563" y2="297.6563"/><polygon fill="#A80036" points="512,399.1797,516,409.1797,520,399.1797,516,403.1797" style="stroke: #A80036; stroke-width: 1.5;"/><line style="stroke: #A80036; stroke-width: 1.5;" x1="516" x2="516" y1="297.6563" y2="513.8984"/><line style="stroke: #A80036; stroke-width: 1.5;" x1="516" x2="386" y1="513.8984" y2="513.8984"/><polygon fill="#A80036" points="396,509.8984,386,513.8984,396,517.8984,392,513.8984" style="stroke: #A80036; stroke-width: 1.0;"/><line style="stroke: #A80036; stroke-width: 1.5;" x1="374" x2="374" y1="481.8984" y2="501.8984"/><polygon fill="#A80036" points="370,491.8984,374,501.8984,378,491.8984,374,495.8984" style="stroke: #A80036; stroke-width: 1.0;"/><line style="stroke: #A80036; stroke-width: 1.5;" x1="374" x2="374" y1="265.6563" y2="285.6563"/><polygon fill="#A80036" points="370,275.6563,374,285.6563,378,275.6563,374,279.6563" style="stroke: #A80036; stroke-width: 1.0;"/><line style="stroke: #A80036; stroke-width: 1.5;" x1="374" x2="374" y1="569.8984" y2="596.7031"/><polygon fill="#A80036" points="370,586.7031,374,596.7031,378,586.7031,374,590.7031" style="stroke: #A80036; stroke-width: 1.0;"/><line style="stroke: #A80036; stroke-width: 1.5;" x1="406" x2="518" y1="557.8984" y2="557.8984"/><polygon fill="#A80036" points="514,623.1172,518,633.1172,522,623.1172,518,627.1172" style="stroke: #A80036; stroke-width: 1.5;"/><line style="stroke: #A80036; stroke-width: 1.5;" x1="518" x2="518" y1="557.8984" y2="701.5313"/><line style="stroke: #A80036; stroke-width: 1.5;" x1="518" x2="386" y1="701.5313" y2="701.5313"/><polygon fill="#A80036" points="396,697.5313,386,701.5313,396,705.5313,392,701.5313" style="stroke: #A80036; stroke-width: 1.0;"/><line style="stroke: #A80036; stroke-width: 1.5;" x1="374" x2="374" y1="669.5313" y2="689.5313"/><polygon fill="#A80036" points="370,679.5313,374,689.5313,378,679.5313,374,683.5313" style="stroke: #A80036; stroke-width: 1.0;"/><line style="stroke: #A80036; stroke-width: 1.5;" x1="374" x2="374" y1="525.8984" y2="545.8984"/><polygon fill="#A80036" points="370,535.8984,374,545.8984,378,535.8984,374,539.8984" style="stroke: #A80036; stroke-width: 1.0;"/><line style="stroke: #A80036; stroke-width: 1.5;" x1="374" x2="374" y1="757.5313" y2="784.3359"/><polygon fill="#A80036" points="370,774.3359,374,784.3359,378,774.3359,374,778.3359" style="stroke: #A80036; stroke-width: 1.0;"/><line style="stroke: #A80036; stroke-width: 1.5;" x1="406" x2="518" y1="745.5313" y2="745.5313"/><polygon fill="#A80036" points="514,810.75,518,820.75,522,810.75,518,814.75" style="stroke: #A80036; stroke-width: 1.5;"/><line style="stroke: #A80036; stroke-width: 1.5;" x1="518" x2="518" y1="745.5313" y2="889.1641"/><line style="stroke: #A80036; stroke-width: 1.5;" x1="518" x2="386" y1="889.1641" y2="889.1641"/><polygon fill="#A80036" points="396,885.1641,386,889.1641,396,893.1641,392,889.1641" style="stroke: #A80036; stroke-width: 1.0;"/><line style="stroke: #A80036; stroke-width: 1.5;" x1="374" x2="374" y1="857.1641" y2="877.1641"/><polygon fill="#A80036" points="370,867.1641,374,877.1641,378,867.1641,374,871.1641" style="stroke: #A80036; stroke-width: 1.0;"/><line style="stroke: #A80036; stroke-width: 1.5;" x1="374" x2="374" y1="713.5313" y2="733.5313"/><polygon fill="#A80036" points="370,723.5313,374,733.5313,378,723.5313,374,727.5313" style="stroke: #A80036; stroke-width: 1.0;"/><line style="stroke: #A80036; stroke-width: 1.5;" x1="597.5" x2="597.5" y1="1108.6016" y2="1143.6016"/><polygon fill="#A80036" points="593.5,1133.6016,597.5,1143.6016,601.5,1133.6016,597.5,1137.6016" style="stroke: #A80036; stroke-width: 1.0;"/><line style="stroke: #A80036; stroke-width: 1.5;" x1="160.5" x2="150.5" y1="1048.9922" y2="1048.9922"/><line style="stroke: #A80036; stroke-width: 1.5;" x1="150.5" x2="150.5" y1="1048.9922" y2="1070.9922"/><polygon fill="#A80036" points="146.5,1060.9922,150.5,1070.9922,154.5,1060.9922,150.5,1064.9922" style="stroke: #A80036; stroke-width: 1.0;"/><line style="stroke: #A80036; stroke-width: 1.5;" x1="587.5" x2="597.5" y1="1048.9922" y2="1048.9922"/><line style="stroke: #A80036; stroke-width: 1.5;" x1="597.5" x2="597.5" y1="1048.9922" y2="1070.9922"/><polygon fill="#A80036" points="593.5,1060.9922,597.5,1070.9922,601.5,1060.9922,597.5,1064.9922" style="stroke: #A80036; stroke-width: 1.0;"/><line style="stroke: #A80036; stroke-width: 1.5;" x1="150.5" x2="150.5" y1="1143.8203" y2="1234.4297"/><line style="stroke: #A80036; stroke-width: 1.5;" x1="150.5" x2="362" y1="1234.4297" y2="1234.4297"/><polygon fill="#A80036" points="352,1230.4297,362,1234.4297,352,1238.4297,356,1234.4297" style="stroke: #A80036; stroke-width: 1.0;"/><line style="stroke: #A80036; stroke-width: 1.5;" x1="597.5" x2="597.5" y1="1216.4297" y2="1234.4297"/><line style="stroke: #A80036; stroke-width: 1.5;" x1="597.5" x2="386" y1="1234.4297" y2="1234.4297"/><polygon fill="#A80036" points="396,1230.4297,386,1234.4297,396,1238.4297,392,1234.4297" style="stroke: #A80036; stroke-width: 1.0;"/><line style="stroke: #A80036; stroke-width: 1.5;" x1="374" x2="374" y1="1015.9922" y2="1036.9922"/><polygon fill="#A80036" points="370,1026.9922,374,1036.9922,378,1026.9922,374,1030.9922" style="stroke: #A80036; stroke-width: 1.0;"/><line style="stroke: #A80036; stroke-width: 1.5;" x1="374" x2="374" y1="1290.4297" y2="1317.2344"/><polygon fill="#A80036" points="370,1307.2344,374,1317.2344,378,1307.2344,374,1311.2344" style="stroke: #A80036; stroke-width: 1.0;"/><line style="stroke: #A80036; stroke-width: 1.5;" x1="653.5" x2="665.5" y1="1278.4297" y2="1278.4297"/><polygon fill="#A80036" points="661.5,1334.8438,665.5,1344.8438,669.5,1334.8438,665.5,1338.8438" style="stroke: #A80036; stroke-width: 1.5;"/><line style="stroke: #A80036; stroke-width: 1.5;" x1="665.5" x2="665.5" y1="1278.4297" y2="1411.2578"/><line style="stroke: #A80036; stroke-width: 1.5;" x1="665.5" x2="386" y1="1411.2578" y2="1411.2578"/><polygon fill="#A80036" points="396,1407.2578,386,1411.2578,396,1415.2578,392,1411.2578" style="stroke: #A80036; stroke-width: 1.0;"/><line style="stroke: #A80036; stroke-width: 1.5;" x1="374" x2="374" y1="1372.4531" y2="1399.2578"/><polygon fill="#A80036" points="370,1389.2578,374,1399.2578,378,1389.2578,374,1393.2578" style="stroke: #A80036; stroke-width: 1.0;"/><line style="stroke: #A80036; stroke-width: 1.5;" x1="374" x2="374" y1="1246.4297" y2="1266.4297"/><polygon fill="#A80036" points="370,1256.4297,374,1266.4297,378,1256.4297,374,1260.4297" style="stroke: #A80036; stroke-width: 1.0;"/><line style="stroke: #A80036; stroke-width: 1.5;" x1="374" x2="374" y1="1467.2578" y2="1494.0625"/><polygon fill="#A80036" points="370,1484.0625,374,1494.0625,378,1484.0625,374,1488.0625" style="stroke: #A80036; stroke-width: 1.0;"/><line style="stroke: #A80036; stroke-width: 1.5;" x1="657.5" x2="669.5" y1="1455.2578" y2="1455.2578"/><polygon fill="#A80036" points="665.5,1529.2813,669.5,1539.2813,673.5,1529.2813,669.5,1533.2813" style="stroke: #A80036; stroke-width: 1.5;"/><line style="stroke: #A80036; stroke-width: 1.5;" x1="669.5" x2="669.5" y1="1455.2578" y2="1623.3047"/><line style="stroke: #A80036; stroke-width: 1.5;" x1="669.5" x2="386" y1="1623.3047" y2="1623.3047"/><polygon fill="#A80036" points="396,1619.3047,386,1623.3047,396,1627.3047,392,1623.3047" style="stroke: #A80036; stroke-width: 1.0;"/><line style="stroke: #A80036; stroke-width: 1.5;" x1="374" x2="374" y1="1584.5" y2="1611.3047"/><polygon fill="#A80036" points="370,1601.3047,374,1611.3047,378,1601.3047,374,1605.3047" style="stroke: #A80036; stroke-width: 1.0;"/><line style="stroke: #A80036; stroke-width: 1.5;" x1="374" x2="374" y1="1423.2578" y2="1443.2578"/><polygon fill="#A80036" points="370,1433.2578,374,1443.2578,378,1433.2578,374,1437.2578" style="stroke: #A80036; stroke-width: 1.0;"/><line style="stroke: #A80036; stroke-width: 1.5;" x1="374" x2="374" y1="1708.1328" y2="1734.9375"/><polygon fill="#A80036" points="370,1724.9375,374,1734.9375,378,1724.9375,374,1728.9375" style="stroke: #A80036; stroke-width: 1.0;"/><line style="stroke: #A80036; stroke-width: 1.5;" x1="657.5" x2="669.5" y1="1681.7188" y2="1681.7188"/><polygon fill="#A80036" points="665.5,1762.9492,669.5,1772.9492,673.5,1762.9492,669.5,1766.9492" style="stroke: #A80036; stroke-width: 1.5;"/><line style="stroke: #A80036; stroke-width: 1.5;" x1="669.5" x2="669.5" y1="1681.7188" y2="1864.1797"/><line style="stroke: #A80036; stroke-width: 1.5;" x1="669.5" x2="386" y1="1864.1797" y2="1864.1797"/><polygon fill="#A80036" points="396,1860.1797,386,1864.1797,396,1868.1797,392,1864.1797" style="stroke: #A80036; stroke-width: 1.0;"/><line style="stroke: #A80036; stroke-width: 1.5;" x1="374" x2="374" y1="1825.375" y2="1852.1797"/><polygon fill="#A80036" points="370,1842.1797,374,1852.1797,378,1842.1797,374,1846.1797" style="stroke: #A80036; stroke-width: 1.0;"/><line style="stroke: #A80036; stroke-width: 1.5;" x1="374" x2="374" y1="1635.3047" y2="1655.3047"/><polygon fill="#A80036" points="370,1645.3047,374,1655.3047,378,1645.3047,374,1649.3047" style="stroke: #A80036; stroke-width: 1.0;"/><line style="stroke: #A80036; stroke-width: 1.5;" x1="374" x2="374" y1="901.1641" y2="960.7734"/><polygon fill="#A80036" points="370,950.7734,374,960.7734,378,950.7734,374,954.7734" style="stroke: #A80036; stroke-width: 1.0;"/><line style="stroke: #A80036; stroke-width: 1.5;" x1="374" x2="374" y1="162.8281" y2="210.4375"/><polygon fill="#A80036" points="370,200.4375,374,210.4375,378,200.4375,374,204.4375" style="stroke: #A80036; stroke-width: 1.0;"/><line style="stroke: #A80036; stroke-width: 1.5;" x1="535" x2="980.5" y1="1920.1797" y2="1920.1797"/><polygon fill="#A80036" points="976.5,1016.9922,980.5,1006.9922,984.5,1016.9922,980.5,1012.9922" style="stroke: #A80036; stroke-width: 1.5;"/><line style="stroke: #A80036; stroke-width: 1.5;" x1="980.5" x2="980.5" y1="135.2188" y2="1920.1797"/><line style="stroke: #A80036; stroke-width: 1.5;" x1="980.5" x2="483.5" y1="135.2188" y2="135.2188"/><polygon fill="#A80036" points="493.5,131.2188,483.5,135.2188,493.5,139.2188,489.5,135.2188" style="stroke: #A80036; stroke-width: 1.0;"/><line style="stroke: #A80036; stroke-width: 1.5;" x1="374" x2="374" y1="1876.1797" y2="1908.1797"/><polygon fill="#A80036" points="370,1898.1797,374,1908.1797,378,1898.1797,374,1902.1797" style="stroke: #A80036; stroke-width: 1.0;"/><line style="stroke: #A80036; stroke-width: 1.5;" x1="374" x2="374" y1="87.6094" y2="107.6094"/><polygon fill="#A80036" points="370,97.6094,374,107.6094,378,97.6094,374,101.6094" style="stroke: #A80036; stroke-width: 1.0;"/><line style="stroke: #A80036; stroke-width: 1.5;" x1="374" x2="374" y1="1932.1797" y2="1967.1797"/><polygon fill="#A80036" points="370,1957.1797,374,1967.1797,378,1957.1797,374,1961.1797" style="stroke: #A80036; stroke-width: 1.0;"/><!--MD5=[77f0e6fc95fe5c332b6c80831e111437]
@startuml
skinparam wrapWidth 250
skinparam defaultTextAlignment center
skinparam defaultFontSize 14
skinparam noteFontSize 14
start
:Исходная раскладка ЙЦУКЕН;
repeat:Получение раскладки на вход алгоритма;
partition "Алгоритм производных раскладок" {
    :Сгенерировать случайное число X в интервале [1;3];
    if (X == 1) then (Да)
        :Сгенерировать случайное число Y в интервале [1;12];
        :Циклично сдвинуть Y колонку и получить все возможные варианты;
    else (Нет)
    endif
    if (X == 2) then (Да)
        :Циклично сдвинуть Y ряд на левой половине и получить все возможные варианты;
    else (Нет)
    endif
    if (X == 3) then (Да)
        :Циклично сдвинуть Y ряд на правой половине и получить все возможные варианты;
    else (Нет)
    endif
}
partition "Алгоритм оптимизации" {
    :Выбор раскладки с наилучшим целевым параметром Score;
    if (Целевое значение Score у раскладки меньше минимального) then (Нет)
        :Количество итераций, где целевое значение Score больше минимального + 1;
    else (Да)
        :Обновить минимальное значение;
        :Количество итераций, где целевое значение Score больше минимального := 0;
    endif 
    if (Количество итераций, где целевое значение Score больше минимального >= 10) then (Да)
        :Выбор случайной раскладки из пройденных итераций;
    else (Нет)
    endif
    note right
        Если мы получили 10 итераций подряд, где целевое значение Score не опускается ниже минального, выбираем для подачи на вход алгоритма случайную из ранее полученных раскладок.
    end note
    if (Количество итераций, где целевое значение Score больше минимального >= 100) then (Да)
        :Выбор случайной раскладки из пройденных итераций, у которой Score равняется минимальному значению;
    else (Нет)
    endif
    note right
        Если мы получили 100 итераций подряд, где целевое значение Score не опускается ниже минального, выбираем для подачи на вход алгоритма случайную из ранее полученных раскладок, где Score равен минимальному значению.
    end note
    if (Количество итераций, где целевое значение Score больше минимального >= 300\nи\nScore <= минимальное значение) then (Да)
        :**Условие завершение алогоритма выполнено**
        //Полученная раскладка является близкой к оптимальной//;
    else (Нет)
    endif
    note right
        Если мы получили 300 итераций подряд, где целевое значение Score не опускается ниже минального, предполагаем, что алгоритм не способен найти более оптимальную раскладку — следовательно завершаем работу алгоритма оптимизации.
    end note
}
repeat while (Условие завершения алгоритма выполнено?) is (Нет) not (Да)
stop
@enduml

PlantUML version 1.2020.10(Sun May 17 12:35:57 MSK 2020)
(GPL source distribution)
Java Runtime: Java(TM) SE Runtime Environment
JVM: Java HotSpot(TM) 64-Bit Server VM
Java Version: 1.8.0_231-b11
Operating System: Windows 10
Default Encoding: Cp1251
Language: ru
Country: RU
--></g></svg>