<?xml version="1.0" encoding="UTF-8" standalone="no"?><svg xmlns="http://www.w3.org/2000/svg" xmlns:xlink="http://www.w3.org/1999/xlink" contentScriptType="application/ecmascript" contentStyleType="text/css" height="1087px" preserveAspectRatio="none" style="width:803px;height:1087px;" version="1.1" viewBox="0 0 803 1087" width="803px" zoomAndPan="magnify"><defs><filter height="300%" id="f1bumy7jib3k85" width="300%" x="-1" y="-1"><feGaussianBlur result="blurOut" stdDeviation="2.0"/><feColorMatrix in="blurOut" result="blurOut2" type="matrix" values="0 0 0 0 0 0 0 0 0 0 0 0 0 0 0 0 0 0 .4 0"/><feOffset dx="4.0" dy="4.0" in="blurOut2" result="blurOut3"/><feBlend in="SourceGraphic" in2="blurOut3" mode="normal"/></filter></defs><g><ellipse cx="380.5" cy="20" fill="#000000" filter="url(#f1bumy7jib3k85)" rx="10" ry="10" style="stroke: none; stroke-width: 1.0;"/><rect fill="#F8F8F8" filter="url(#f1bumy7jib3k85)" height="37.6094" rx="12.5" ry="12.5" style="stroke: #383838; stroke-width: 1.5;" width="223" x="269" y="50"/><text fill="#000000" font-family="sans-serif" font-size="14" lengthAdjust="spacingAndGlyphs" textLength="203" x="279" y="74.5332">Исходная раскладка "ЙЦУКЕН"</text><rect fill="#FFFFFF" filter="url(#f1bumy7jib3k85)" height="762.2891" style="stroke: #000000; stroke-width: 2.0;" width="755" x="10" y="155.2188"/><path d="M243,156.2188 L243,165.8281 L233,175.8281 L10,175.8281 " fill="none" style="stroke: #000000; stroke-width: 2.0;"/><text fill="#000000" font-family="sans-serif" font-size="14" lengthAdjust="spacingAndGlyphs" textLength="223" x="13" y="170.752">Алгоритм производных раскладок</text><rect fill="#F8F8F8" filter="url(#f1bumy7jib3k85)" height="37.6094" rx="12.5" ry="12.5" style="stroke: #383838; stroke-width: 1.5;" width="365" x="198" y="192.8281"/><text fill="#000000" font-family="sans-serif" font-size="14" lengthAdjust="spacingAndGlyphs" textLength="345" x="208" y="217.3613">Сгенерировать случайное число X в интервале [1;3]</text><rect fill="#F8F8F8" filter="url(#f1bumy7jib3k85)" height="37.6094" rx="12.5" ry="12.5" style="stroke: #383838; stroke-width: 1.5;" width="374" x="193.5" y="301.2422"/><text fill="#000000" font-family="sans-serif" font-size="14" lengthAdjust="spacingAndGlyphs" textLength="354" x="203.5" y="325.7754">Сгенерировать случайное число Y в интервале [1;12]</text><rect fill="#F8F8F8" filter="url(#f1bumy7jib3k85)" height="37.6094" rx="12.5" ry="12.5" style="stroke: #383838; stroke-width: 1.5;" width="535" x="113" y="373.8516"/><text fill="#000000" font-family="sans-serif" font-size="14" lengthAdjust="spacingAndGlyphs" textLength="515" x="123" y="398.3848">Циклично сдвинуть Y колонку и получить все возможные варианты раскладок</text><polygon fill="#F8F8F8" filter="url(#f1bumy7jib3k85)" points="360.5,250.4375,400.5,250.4375,412.5,262.4375,400.5,274.4375,360.5,274.4375,348.5,262.4375,360.5,250.4375" style="stroke: #383838; stroke-width: 1.5;"/><text fill="#000000" font-family="sans-serif" font-size="14" lengthAdjust="spacingAndGlyphs" textLength="17" x="384.5" y="288.9707">Да</text><text fill="#000000" font-family="sans-serif" font-size="14" lengthAdjust="spacingAndGlyphs" textLength="40" x="360.5" y="268.166">X == 1</text><text fill="#000000" font-family="sans-serif" font-size="14" lengthAdjust="spacingAndGlyphs" textLength="24" x="412.5" y="259.3613">Нет</text><polygon fill="#F8F8F8" filter="url(#f1bumy7jib3k85)" points="380.5,431.4609,392.5,443.4609,380.5,455.4609,368.5,443.4609,380.5,431.4609" style="stroke: #383838; stroke-width: 1.5;"/><rect fill="#F8F8F8" filter="url(#f1bumy7jib3k85)" height="37.6094" rx="12.5" ry="12.5" style="stroke: #383838; stroke-width: 1.5;" width="366" x="197.5" y="526.2656"/><text fill="#000000" font-family="sans-serif" font-size="14" lengthAdjust="spacingAndGlyphs" textLength="346" x="207.5" y="550.7988">Сгенерировать случайное число Y в интервале [1;3]</text><rect fill="#F8F8F8" filter="url(#f1bumy7jib3k85)" height="37.6094" rx="12.5" ry="12.5" style="stroke: #383838; stroke-width: 1.5;" width="709" x="26" y="598.875"/><text fill="#000000" font-family="sans-serif" font-size="14" lengthAdjust="spacingAndGlyphs" textLength="689" x="36" y="623.4082">Циклично сдвинуть Y ряд на левой половине раскладки и получить все возможные варианты раскладок</text><polygon fill="#F8F8F8" filter="url(#f1bumy7jib3k85)" points="360.5,475.4609,400.5,475.4609,412.5,487.4609,400.5,499.4609,360.5,499.4609,348.5,487.4609,360.5,475.4609" style="stroke: #383838; stroke-width: 1.5;"/><text fill="#000000" font-family="sans-serif" font-size="14" lengthAdjust="spacingAndGlyphs" textLength="17" x="384.5" y="513.9941">Да</text><text fill="#000000" font-family="sans-serif" font-size="14" lengthAdjust="spacingAndGlyphs" textLength="40" x="360.5" y="493.1895">X == 2</text><text fill="#000000" font-family="sans-serif" font-size="14" lengthAdjust="spacingAndGlyphs" textLength="24" x="412.5" y="484.3848">Нет</text><polygon fill="#F8F8F8" filter="url(#f1bumy7jib3k85)" points="380.5,656.4844,392.5,668.4844,380.5,680.4844,368.5,668.4844,380.5,656.4844" style="stroke: #383838; stroke-width: 1.5;"/><rect fill="#F8F8F8" filter="url(#f1bumy7jib3k85)" height="37.6094" rx="12.5" ry="12.5" style="stroke: #383838; stroke-width: 1.5;" width="366" x="197.5" y="751.2891"/><text fill="#000000" font-family="sans-serif" font-size="14" lengthAdjust="spacingAndGlyphs" textLength="346" x="207.5" y="775.8223">Сгенерировать случайное число Y в интервале [1;3]</text><rect fill="#F8F8F8" filter="url(#f1bumy7jib3k85)" height="37.6094" rx="12.5" ry="12.5" style="stroke: #383838; stroke-width: 1.5;" width="717" x="22" y="823.8984"/><text fill="#000000" font-family="sans-serif" font-size="14" lengthAdjust="spacingAndGlyphs" textLength="697" x="32" y="848.4316">Циклично сдвинуть Y ряд на правой половине раскладки и получить все возможные варианты раскладок</text><polygon fill="#F8F8F8" filter="url(#f1bumy7jib3k85)" points="360.5,700.4844,400.5,700.4844,412.5,712.4844,400.5,724.4844,360.5,724.4844,348.5,712.4844,360.5,700.4844" style="stroke: #383838; stroke-width: 1.5;"/><text fill="#000000" font-family="sans-serif" font-size="14" lengthAdjust="spacingAndGlyphs" textLength="17" x="384.5" y="739.0176">Да</text><text fill="#000000" font-family="sans-serif" font-size="14" lengthAdjust="spacingAndGlyphs" textLength="40" x="360.5" y="718.2129">X == 3</text><text fill="#000000" font-family="sans-serif" font-size="14" lengthAdjust="spacingAndGlyphs" textLength="24" x="412.5" y="709.4082">Нет</text><polygon fill="#F8F8F8" filter="url(#f1bumy7jib3k85)" points="380.5,881.5078,392.5,893.5078,380.5,905.5078,368.5,893.5078,380.5,881.5078" style="stroke: #383838; stroke-width: 1.5;"/><rect fill="#F8F8F8" filter="url(#f1bumy7jib3k85)" height="37.6094" rx="12.5" ry="12.5" style="stroke: #383838; stroke-width: 1.5;" width="175" x="293" y="937.5078"/><text fill="#000000" font-family="sans-serif" font-size="14" lengthAdjust="spacingAndGlyphs" textLength="155" x="303" y="962.041">Алгоритм оптимизации</text><rect fill="#F8F8F8" filter="url(#f1bumy7jib3k85)" height="37.6094" rx="12.5" ry="12.5" style="stroke: #383838; stroke-width: 1.5;" width="289" x="236" y="107.6094"/><text fill="#000000" font-family="sans-serif" font-size="14" lengthAdjust="spacingAndGlyphs" textLength="269" x="246" y="132.1426">Получение раскладки на вход алгоритма</text><polygon fill="#F8F8F8" filter="url(#f1bumy7jib3k85)" points="231.5,995.1172,529.5,995.1172,541.5,1007.1172,529.5,1019.1172,231.5,1019.1172,219.5,1007.1172,231.5,995.1172" style="stroke: #383838; stroke-width: 1.5;"/><text fill="#000000" font-family="sans-serif" font-size="14" lengthAdjust="spacingAndGlyphs" textLength="17" x="384.5" y="1033.6504">Да</text><text fill="#000000" font-family="sans-serif" font-size="14" lengthAdjust="spacingAndGlyphs" textLength="298" x="231.5" y="1012.8457">Условие завершения алгоритма выполнено?</text><text fill="#000000" font-family="sans-serif" font-size="14" lengthAdjust="spacingAndGlyphs" textLength="24" x="541.5" y="1004.041">Нет</text><ellipse cx="380.5" cy="1065.1172" fill="#FFFFFF" filter="url(#f1bumy7jib3k85)" rx="11" ry="11" style="stroke: #000000; stroke-width: 1.0;"/><ellipse cx="380.5" cy="1065.1172" fill="#000000" rx="6" ry="6" style="stroke: #7F7F7F; stroke-width: 1.0;"/><line style="stroke: #383838; stroke-width: 1.5;" x1="380.5" x2="380.5" y1="30" y2="50"/><polygon fill="#383838" points="376.5,40,380.5,50,384.5,40,380.5,44" style="stroke: #383838; stroke-width: 1.0;"/><line style="stroke: #383838; stroke-width: 1.5;" x1="380.5" x2="380.5" y1="338.8516" y2="373.8516"/><polygon fill="#383838" points="376.5,363.8516,380.5,373.8516,384.5,363.8516,380.5,367.8516" style="stroke: #383838; stroke-width: 1.0;"/><line style="stroke: #383838; stroke-width: 1.5;" x1="380.5" x2="380.5" y1="274.4375" y2="301.2422"/><polygon fill="#383838" points="376.5,291.2422,380.5,301.2422,384.5,291.2422,380.5,295.2422" style="stroke: #383838; stroke-width: 1.0;"/><line style="stroke: #383838; stroke-width: 1.5;" x1="412.5" x2="658" y1="262.4375" y2="262.4375"/><polygon fill="#383838" points="654,346.3516,658,356.3516,662,346.3516,658,350.3516" style="stroke: #383838; stroke-width: 1.5;"/><line style="stroke: #383838; stroke-width: 1.5;" x1="658" x2="658" y1="262.4375" y2="443.4609"/><line style="stroke: #383838; stroke-width: 1.5;" x1="658" x2="392.5" y1="443.4609" y2="443.4609"/><polygon fill="#383838" points="402.5,439.4609,392.5,443.4609,402.5,447.4609,398.5,443.4609" style="stroke: #383838; stroke-width: 1.0;"/><line style="stroke: #383838; stroke-width: 1.5;" x1="380.5" x2="380.5" y1="411.4609" y2="431.4609"/><polygon fill="#383838" points="376.5,421.4609,380.5,431.4609,384.5,421.4609,380.5,425.4609" style="stroke: #383838; stroke-width: 1.0;"/><line style="stroke: #383838; stroke-width: 1.5;" x1="380.5" x2="380.5" y1="230.4375" y2="250.4375"/><polygon fill="#383838" points="376.5,240.4375,380.5,250.4375,384.5,240.4375,380.5,244.4375" style="stroke: #383838; stroke-width: 1.0;"/><line style="stroke: #383838; stroke-width: 1.5;" x1="380.5" x2="380.5" y1="563.875" y2="598.875"/><polygon fill="#383838" points="376.5,588.875,380.5,598.875,384.5,588.875,380.5,592.875" style="stroke: #383838; stroke-width: 1.0;"/><line style="stroke: #383838; stroke-width: 1.5;" x1="380.5" x2="380.5" y1="499.4609" y2="526.2656"/><polygon fill="#383838" points="376.5,516.2656,380.5,526.2656,384.5,516.2656,380.5,520.2656" style="stroke: #383838; stroke-width: 1.0;"/><line style="stroke: #383838; stroke-width: 1.5;" x1="412.5" x2="745" y1="487.4609" y2="487.4609"/><polygon fill="#383838" points="741,571.375,745,581.375,749,571.375,745,575.375" style="stroke: #383838; stroke-width: 1.5;"/><line style="stroke: #383838; stroke-width: 1.5;" x1="745" x2="745" y1="487.4609" y2="668.4844"/><line style="stroke: #383838; stroke-width: 1.5;" x1="745" x2="392.5" y1="668.4844" y2="668.4844"/><polygon fill="#383838" points="402.5,664.4844,392.5,668.4844,402.5,672.4844,398.5,668.4844" style="stroke: #383838; stroke-width: 1.0;"/><line style="stroke: #383838; stroke-width: 1.5;" x1="380.5" x2="380.5" y1="636.4844" y2="656.4844"/><polygon fill="#383838" points="376.5,646.4844,380.5,656.4844,384.5,646.4844,380.5,650.4844" style="stroke: #383838; stroke-width: 1.0;"/><line style="stroke: #383838; stroke-width: 1.5;" x1="380.5" x2="380.5" y1="455.4609" y2="475.4609"/><polygon fill="#383838" points="376.5,465.4609,380.5,475.4609,384.5,465.4609,380.5,469.4609" style="stroke: #383838; stroke-width: 1.0;"/><line style="stroke: #383838; stroke-width: 1.5;" x1="380.5" x2="380.5" y1="788.8984" y2="823.8984"/><polygon fill="#383838" points="376.5,813.8984,380.5,823.8984,384.5,813.8984,380.5,817.8984" style="stroke: #383838; stroke-width: 1.0;"/><line style="stroke: #383838; stroke-width: 1.5;" x1="380.5" x2="380.5" y1="724.4844" y2="751.2891"/><polygon fill="#383838" points="376.5,741.2891,380.5,751.2891,384.5,741.2891,380.5,745.2891" style="stroke: #383838; stroke-width: 1.0;"/><line style="stroke: #383838; stroke-width: 1.5;" x1="412.5" x2="749" y1="712.4844" y2="712.4844"/><polygon fill="#383838" points="745,796.3984,749,806.3984,753,796.3984,749,800.3984" style="stroke: #383838; stroke-width: 1.5;"/><line style="stroke: #383838; stroke-width: 1.5;" x1="749" x2="749" y1="712.4844" y2="893.5078"/><line style="stroke: #383838; stroke-width: 1.5;" x1="749" x2="392.5" y1="893.5078" y2="893.5078"/><polygon fill="#383838" points="402.5,889.5078,392.5,893.5078,402.5,897.5078,398.5,893.5078" style="stroke: #383838; stroke-width: 1.0;"/><line style="stroke: #383838; stroke-width: 1.5;" x1="380.5" x2="380.5" y1="861.5078" y2="881.5078"/><polygon fill="#383838" points="376.5,871.5078,380.5,881.5078,384.5,871.5078,380.5,875.5078" style="stroke: #383838; stroke-width: 1.0;"/><line style="stroke: #383838; stroke-width: 1.5;" x1="380.5" x2="380.5" y1="680.4844" y2="700.4844"/><polygon fill="#383838" points="376.5,690.4844,380.5,700.4844,384.5,690.4844,380.5,694.4844" style="stroke: #383838; stroke-width: 1.0;"/><line style="stroke: #383838; stroke-width: 1.5;" x1="380.5" x2="380.5" y1="905.5078" y2="937.5078"/><polygon fill="#383838" points="376.5,927.5078,380.5,937.5078,384.5,927.5078,380.5,931.5078" style="stroke: #383838; stroke-width: 1.0;"/><line style="stroke: #383838; stroke-width: 1.5;" x1="380.5" x2="380.5" y1="145.2188" y2="192.8281"/><polygon fill="#383838" points="376.5,182.8281,380.5,192.8281,384.5,182.8281,380.5,186.8281" style="stroke: #383838; stroke-width: 1.0;"/><line style="stroke: #383838; stroke-width: 1.5;" x1="541.5" x2="777" y1="1007.1172" y2="1007.1172"/><polygon fill="#383838" points="773,579.168,777,569.168,781,579.168,777,575.168" style="stroke: #383838; stroke-width: 1.5;"/><line style="stroke: #383838; stroke-width: 1.5;" x1="777" x2="777" y1="126.4141" y2="1007.1172"/><line style="stroke: #383838; stroke-width: 1.5;" x1="777" x2="525" y1="126.4141" y2="126.4141"/><polygon fill="#383838" points="535,122.4141,525,126.4141,535,130.4141,531,126.4141" style="stroke: #383838; stroke-width: 1.0;"/><line style="stroke: #383838; stroke-width: 1.5;" x1="380.5" x2="380.5" y1="975.1172" y2="995.1172"/><polygon fill="#383838" points="376.5,985.1172,380.5,995.1172,384.5,985.1172,380.5,989.1172" style="stroke: #383838; stroke-width: 1.0;"/><line style="stroke: #383838; stroke-width: 1.5;" x1="380.5" x2="380.5" y1="87.6094" y2="107.6094"/><polygon fill="#383838" points="376.5,97.6094,380.5,107.6094,384.5,97.6094,380.5,101.6094" style="stroke: #383838; stroke-width: 1.0;"/><line style="stroke: #383838; stroke-width: 1.5;" x1="380.5" x2="380.5" y1="1019.1172" y2="1054.1172"/><polygon fill="#383838" points="376.5,1044.1172,380.5,1054.1172,384.5,1044.1172,380.5,1048.1172" style="stroke: #383838; stroke-width: 1.0;"/><!--MD5=[1ebe26a6f7194c7fa897504e5e3448c2]
@startuml "Детализаци алгоритма производных раскладок"
skinparam monochrome true
' skinparam wrapWidth 300
skinparam defaultTextAlignment center
skinparam defaultFontSize 14
skinparam noteFontSize 14
start
:Исходная раскладка "ЙЦУКЕН";
repeat:Получение раскладки на вход алгоритма;
partition "Алгоритм производных раскладок" {
    :Сгенерировать случайное число X в интервале [1;3];
    if (X == 1) then (Да)
        :Сгенерировать случайное число Y в интервале [1;12];
        :Циклично сдвинуть Y колонку и получить все возможные варианты раскладок;
    else (Нет)
    endif
    if (X == 2) then (Да)
        :Сгенерировать случайное число Y в интервале [1;3];
        :Циклично сдвинуть Y ряд на левой половине раскладки и получить все возможные варианты раскладок;
    else (Нет)
    endif
    if (X == 3) then (Да)
        :Сгенерировать случайное число Y в интервале [1;3];
        :Циклично сдвинуть Y ряд на правой половине раскладки и получить все возможные варианты раскладок;
    else (Нет)
    endif
}
:Алгоритм оптимизации;
repeat while (Условие завершения алгоритма выполнено?) is (Нет) not (Да)
stop
@enduml

@startuml "Детализаци алгоритма производных раскладок"
skinparam monochrome true
skinparam defaultTextAlignment center
skinparam defaultFontSize 14
skinparam noteFontSize 14
start
:Исходная раскладка "ЙЦУКЕН";
repeat:Получение раскладки на вход алгоритма;
partition "Алгоритм производных раскладок" {
    :Сгенерировать случайное число X в интервале [1;3];
    if (X == 1) then (Да)
        :Сгенерировать случайное число Y в интервале [1;12];
        :Циклично сдвинуть Y колонку и получить все возможные варианты раскладок;
    else (Нет)
    endif
    if (X == 2) then (Да)
        :Сгенерировать случайное число Y в интервале [1;3];
        :Циклично сдвинуть Y ряд на левой половине раскладки и получить все возможные варианты раскладок;
    else (Нет)
    endif
    if (X == 3) then (Да)
        :Сгенерировать случайное число Y в интервале [1;3];
        :Циклично сдвинуть Y ряд на правой половине раскладки и получить все возможные варианты раскладок;
    else (Нет)
    endif
}
:Алгоритм оптимизации;
repeat while (Условие завершения алгоритма выполнено?) is (Нет) not (Да)
stop
@enduml

PlantUML version 1.2020.10(Sun May 17 12:35:57 MSK 2020)
(GPL source distribution)
Java Runtime: Java(TM) SE Runtime Environment
JVM: Java HotSpot(TM) 64-Bit Server VM
Java Version: 1.8.0_231-b11
Operating System: Windows 10
Default Encoding: Cp1251
Language: ru
Country: RU
--></g></svg>