<?xml version="1.0" encoding="UTF-8" standalone="no"?><svg xmlns="http://www.w3.org/2000/svg" xmlns:xlink="http://www.w3.org/1999/xlink" contentScriptType="application/ecmascript" contentStyleType="text/css" height="1306px" preserveAspectRatio="none" style="width:1004px;height:1306px;" version="1.1" viewBox="0 0 1004 1306" width="1004px" zoomAndPan="magnify"><defs><filter height="300%" id="f14vlibbnacfby" width="300%" x="-1" y="-1"><feGaussianBlur result="blurOut" stdDeviation="2.0"/><feColorMatrix in="blurOut" result="blurOut2" type="matrix" values="0 0 0 0 0 0 0 0 0 0 0 0 0 0 0 0 0 0 .4 0"/><feOffset dx="4.0" dy="4.0" in="blurOut2" result="blurOut3"/><feBlend in="SourceGraphic" in2="blurOut3" mode="normal"/></filter></defs><g><ellipse cx="374" cy="20" fill="#000000" filter="url(#f14vlibbnacfby)" rx="10" ry="10" style="stroke: none; stroke-width: 1.0;"/><rect fill="#F8F8F8" filter="url(#f14vlibbnacfby)" height="37.6094" rx="12.5" ry="12.5" style="stroke: #383838; stroke-width: 1.5;" width="223" x="262.5" y="50"/><text fill="#000000" font-family="sans-serif" font-size="14" lengthAdjust="spacingAndGlyphs" textLength="203" x="272.5" y="74.5332">Исходная раскладка "ЙЦУКЕН"</text><rect fill="#F8F8F8" filter="url(#f14vlibbnacfby)" height="37.6094" rx="12.5" ry="12.5" style="stroke: #383838; stroke-width: 1.5;" width="243" x="252.5" y="182.8281"/><text fill="#000000" font-family="sans-serif" font-size="14" lengthAdjust="spacingAndGlyphs" textLength="223" x="262.5" y="207.3613">Алгоритм производных раскладок</text><rect fill="#FFFFFF" filter="url(#f14vlibbnacfby)" height="964.0156" style="stroke: #000000; stroke-width: 2.0;" width="956" x="10" y="230.4375"/><path d="M175,231.4375 L175,241.0469 L165,251.0469 L10,251.0469 " fill="none" style="stroke: #000000; stroke-width: 2.0;"/><text fill="#000000" font-family="sans-serif" font-size="14" lengthAdjust="spacingAndGlyphs" textLength="155" x="13" y="245.9707">Алгоритм оптимизации</text><rect fill="#F8F8F8" filter="url(#f14vlibbnacfby)" height="55.2188" rx="12.5" ry="12.5" style="stroke: #383838; stroke-width: 1.5;" width="228" x="260" y="268.0469"/><text fill="#000000" font-family="sans-serif" font-size="14" lengthAdjust="spacingAndGlyphs" textLength="204" x="270" y="292.5801">Выбор раскладки с наилучшим</text><text fill="#000000" font-family="sans-serif" font-size="14" lengthAdjust="spacingAndGlyphs" textLength="188" x="280" y="310.1895">целевым параметром Score</text><polygon fill="#F8F8F8" filter="url(#f14vlibbnacfby)" points="172.5,343.2656,575.5,343.2656,587.5,355.2656,575.5,367.2656,172.5,367.2656,160.5,355.2656,172.5,343.2656" style="stroke: #383838; stroke-width: 1.5;"/><text fill="#000000" font-family="sans-serif" font-size="14" lengthAdjust="spacingAndGlyphs" textLength="403" x="172.5" y="360.9941">Целевое значение Score у раскладки меньше минимального</text><text fill="#000000" font-family="sans-serif" font-size="14" lengthAdjust="spacingAndGlyphs" textLength="24" x="136.5" y="352.1895">Нет</text><text fill="#000000" font-family="sans-serif" font-size="14" lengthAdjust="spacingAndGlyphs" textLength="17" x="587.5" y="352.1895">Да</text><rect fill="#F8F8F8" filter="url(#f14vlibbnacfby)" height="72.8281" rx="12.5" ry="12.5" style="stroke: #383838; stroke-width: 1.5;" width="257" x="22" y="377.2656"/><text fill="#000000" font-family="sans-serif" font-size="14" lengthAdjust="spacingAndGlyphs" textLength="233" x="32" y="401.7988">Количество итераций, где целевое</text><text fill="#000000" font-family="sans-serif" font-size="14" lengthAdjust="spacingAndGlyphs" textLength="157" x="70" y="419.4082">значение Score больше</text><text fill="#000000" font-family="sans-serif" font-size="14" lengthAdjust="spacingAndGlyphs" textLength="121" x="90" y="437.0176">минимального + 1</text><rect fill="#F8F8F8" filter="url(#f14vlibbnacfby)" height="37.6094" rx="12.5" ry="12.5" style="stroke: #383838; stroke-width: 1.5;" width="246" x="474.5" y="377.2656"/><text fill="#000000" font-family="sans-serif" font-size="14" lengthAdjust="spacingAndGlyphs" textLength="226" x="484.5" y="401.7988">Обновить минимальное значение</text><rect fill="#F8F8F8" filter="url(#f14vlibbnacfby)" height="72.8281" rx="12.5" ry="12.5" style="stroke: #383838; stroke-width: 1.5;" width="257" x="469" y="449.875"/><text fill="#000000" font-family="sans-serif" font-size="14" lengthAdjust="spacingAndGlyphs" textLength="233" x="479" y="474.4082">Количество итераций, где целевое</text><text fill="#000000" font-family="sans-serif" font-size="14" lengthAdjust="spacingAndGlyphs" textLength="157" x="517" y="492.0176">значение Score больше</text><text fill="#000000" font-family="sans-serif" font-size="14" lengthAdjust="spacingAndGlyphs" textLength="125" x="535" y="509.627">минимального := 0</text><polygon fill="#F8F8F8" filter="url(#f14vlibbnacfby)" points="374,528.7031,386,540.7031,374,552.7031,362,540.7031,374,528.7031" style="stroke: #383838; stroke-width: 1.5;"/><path d="M683,593.2891 L683,708.9453 L951,708.9453 L951,603.2891 L941,593.2891 L683,593.2891 " fill="#ECECEC" filter="url(#f14vlibbnacfby)" style="stroke: #383838; stroke-width: 1.0;"/><path d="M941,593.2891 L941,603.2891 L951,603.2891 L941,593.2891 " fill="#ECECEC" style="stroke: #383838; stroke-width: 1.0;"/><text fill="#000000" font-family="sans-serif" font-size="14" lengthAdjust="spacingAndGlyphs" textLength="210" x="705.5" y="612.8223">Если мы получили 10 итераций</text><text fill="#000000" font-family="sans-serif" font-size="14" lengthAdjust="spacingAndGlyphs" textLength="243" x="689" y="630.4316">подряд, где целевое значение Score</text><text fill="#000000" font-family="sans-serif" font-size="14" lengthAdjust="spacingAndGlyphs" textLength="218" x="701.5" y="648.041">не опускается ниже минального,</text><text fill="#000000" font-family="sans-serif" font-size="14" lengthAdjust="spacingAndGlyphs" textLength="199" x="711" y="665.6504">выбираем для подачи на вход</text><text fill="#000000" font-family="sans-serif" font-size="14" lengthAdjust="spacingAndGlyphs" textLength="207" x="707" y="683.2598">алгоритма случайную из ранее</text><text fill="#000000" font-family="sans-serif" font-size="14" lengthAdjust="spacingAndGlyphs" textLength="153" x="736" y="700.8691">полученных раскладок.</text><rect fill="#F8F8F8" filter="url(#f14vlibbnacfby)" height="55.2188" rx="12.5" ry="12.5" style="stroke: #383838; stroke-width: 1.5;" width="229" x="259.5" y="623.5078"/><text fill="#000000" font-family="sans-serif" font-size="14" lengthAdjust="spacingAndGlyphs" textLength="205" x="269.5" y="648.041">Выбор случайной раскладки из</text><text fill="#000000" font-family="sans-serif" font-size="14" lengthAdjust="spacingAndGlyphs" textLength="148" x="300" y="665.6504">пройденных итераций</text><polygon fill="#F8F8F8" filter="url(#f14vlibbnacfby)" points="109,572.7031,639,572.7031,651,584.7031,639,596.7031,109,596.7031,97,584.7031,109,572.7031" style="stroke: #383838; stroke-width: 1.5;"/><text fill="#000000" font-family="sans-serif" font-size="14" lengthAdjust="spacingAndGlyphs" textLength="17" x="378" y="611.2363">Да</text><text fill="#000000" font-family="sans-serif" font-size="14" lengthAdjust="spacingAndGlyphs" textLength="530" x="109" y="590.4316">Количество итераций, где целевое значение Score больше минимального ≥ 10</text><text fill="#000000" font-family="sans-serif" font-size="14" lengthAdjust="spacingAndGlyphs" textLength="24" x="651" y="581.627">Нет</text><polygon fill="#F8F8F8" filter="url(#f14vlibbnacfby)" points="374,705.5313,386,717.5313,374,729.5313,362,717.5313,374,705.5313" style="stroke: #383838; stroke-width: 1.5;"/><path d="M687,778.9219 L687,912.1875 L955,912.1875 L955,788.9219 L945,778.9219 L687,778.9219 " fill="#ECECEC" filter="url(#f14vlibbnacfby)" style="stroke: #383838; stroke-width: 1.0;"/><path d="M945,778.9219 L945,788.9219 L955,788.9219 L945,778.9219 " fill="#ECECEC" style="stroke: #383838; stroke-width: 1.0;"/><text fill="#000000" font-family="sans-serif" font-size="14" lengthAdjust="spacingAndGlyphs" textLength="218" x="705.5" y="798.4551">Если мы получили 100 итераций</text><text fill="#000000" font-family="sans-serif" font-size="14" lengthAdjust="spacingAndGlyphs" textLength="243" x="693" y="816.0645">подряд, где целевое значение Score</text><text fill="#000000" font-family="sans-serif" font-size="14" lengthAdjust="spacingAndGlyphs" textLength="218" x="705.5" y="833.6738">не опускается ниже минального,</text><text fill="#000000" font-family="sans-serif" font-size="14" lengthAdjust="spacingAndGlyphs" textLength="199" x="715" y="851.2832">выбираем для подачи на вход</text><text fill="#000000" font-family="sans-serif" font-size="14" lengthAdjust="spacingAndGlyphs" textLength="207" x="711" y="868.8926">алгоритма случайную из ранее</text><text fill="#000000" font-family="sans-serif" font-size="14" lengthAdjust="spacingAndGlyphs" textLength="219" x="705" y="886.502">полученных раскладок, где Score</text><text fill="#000000" font-family="sans-serif" font-size="14" lengthAdjust="spacingAndGlyphs" textLength="216" x="708.5" y="904.1113">равен минимальному значению.</text><rect fill="#F8F8F8" filter="url(#f14vlibbnacfby)" height="90.4375" rx="12.5" ry="12.5" style="stroke: #383838; stroke-width: 1.5;" width="244" x="252" y="800.3359"/><text fill="#000000" font-family="sans-serif" font-size="14" lengthAdjust="spacingAndGlyphs" textLength="205" x="269.5" y="824.8691">Выбор случайной раскладки из</text><text fill="#000000" font-family="sans-serif" font-size="14" lengthAdjust="spacingAndGlyphs" textLength="220" x="262" y="842.4785">пройденных итераций, у которой</text><text fill="#000000" font-family="sans-serif" font-size="14" lengthAdjust="spacingAndGlyphs" textLength="215" x="264.5" y="860.0879">Score равняется минимальному</text><text fill="#000000" font-family="sans-serif" font-size="14" lengthAdjust="spacingAndGlyphs" textLength="64" x="342" y="877.6973">значению</text><polygon fill="#F8F8F8" filter="url(#f14vlibbnacfby)" points="105,749.5313,643,749.5313,655,761.5313,643,773.5313,105,773.5313,93,761.5313,105,749.5313" style="stroke: #383838; stroke-width: 1.5;"/><text fill="#000000" font-family="sans-serif" font-size="14" lengthAdjust="spacingAndGlyphs" textLength="17" x="378" y="788.0645">Да</text><text fill="#000000" font-family="sans-serif" font-size="14" lengthAdjust="spacingAndGlyphs" textLength="538" x="105" y="767.2598">Количество итераций, где целевое значение Score больше минимального ≥ 100</text><text fill="#000000" font-family="sans-serif" font-size="14" lengthAdjust="spacingAndGlyphs" textLength="24" x="655" y="758.4551">Нет</text><polygon fill="#F8F8F8" filter="url(#f14vlibbnacfby)" points="374,917.5781,386,929.5781,374,941.5781,362,929.5781,374,917.5781" style="stroke: #383838; stroke-width: 1.5;"/><path d="M687,996.5781 L687,1147.4531 L956,1147.4531 L956,1006.5781 L946,996.5781 L687,996.5781 " fill="#ECECEC" filter="url(#f14vlibbnacfby)" style="stroke: #383838; stroke-width: 1.0;"/><path d="M946,996.5781 L946,1006.5781 L956,1006.5781 L946,996.5781 " fill="#ECECEC" style="stroke: #383838; stroke-width: 1.0;"/><text fill="#000000" font-family="sans-serif" font-size="14" lengthAdjust="spacingAndGlyphs" textLength="218" x="706" y="1016.1113">Если мы получили 300 итераций</text><text fill="#000000" font-family="sans-serif" font-size="14" lengthAdjust="spacingAndGlyphs" textLength="243" x="693.5" y="1033.7207">подряд, где целевое значение Score</text><text fill="#000000" font-family="sans-serif" font-size="14" lengthAdjust="spacingAndGlyphs" textLength="218" x="706" y="1051.3301">не опускается ниже минального,</text><text fill="#000000" font-family="sans-serif" font-size="14" lengthAdjust="spacingAndGlyphs" textLength="211" x="709.5" y="1068.9395">предполагаем, что алгоритм не</text><text fill="#000000" font-family="sans-serif" font-size="14" lengthAdjust="spacingAndGlyphs" textLength="244" x="693" y="1086.5488">способен найти более оптимальную</text><text fill="#000000" font-family="sans-serif" font-size="14" lengthAdjust="spacingAndGlyphs" textLength="189" x="720.5" y="1104.1582">раскладку — следовательно</text><text fill="#000000" font-family="sans-serif" font-size="14" lengthAdjust="spacingAndGlyphs" textLength="198" x="716" y="1121.7676">завершаем работу алгоритма</text><text fill="#000000" font-family="sans-serif" font-size="14" lengthAdjust="spacingAndGlyphs" textLength="92" x="771" y="1139.377">оптимизации.</text><rect fill="#F8F8F8" filter="url(#f14vlibbnacfby)" height="90.4375" rx="12.5" ry="12.5" style="stroke: #383838; stroke-width: 1.5;" width="267" x="240.5" y="1041.2109"/><text fill="#000000" font-family="sans-serif" font-size="14" font-weight="bold" lengthAdjust="spacingAndGlyphs" textLength="243" x="250.5" y="1065.7441">Условие завершение алогоритма</text><text fill="#000000" font-family="sans-serif" font-size="14" font-weight="bold" lengthAdjust="spacingAndGlyphs" textLength="81" x="333.5" y="1083.3535">выполнено</text><text fill="#000000" font-family="sans-serif" font-size="14" font-style="italic" lengthAdjust="spacingAndGlyphs" textLength="218" x="263" y="1100.9629">Полученная раскладка является</text><text fill="#000000" font-family="sans-serif" font-size="14" font-style="italic" lengthAdjust="spacingAndGlyphs" textLength="161" x="293.5" y="1118.5723">близкой к оптимальной</text><polygon fill="#F8F8F8" filter="url(#f14vlibbnacfby)" points="105,961.5781,643,961.5781,655,987.9922,643,1014.4063,105,1014.4063,93,987.9922,105,961.5781" style="stroke: #383838; stroke-width: 1.5;"/><text fill="#000000" font-family="sans-serif" font-size="14" lengthAdjust="spacingAndGlyphs" textLength="17" x="378" y="1028.9395">Да</text><text fill="#000000" font-family="sans-serif" font-size="14" lengthAdjust="spacingAndGlyphs" textLength="538" x="105" y="976.1113">Количество итераций, где целевое значение Score больше минимального ≥ 300</text><text fill="#000000" font-family="sans-serif" font-size="14" lengthAdjust="spacingAndGlyphs" textLength="8" x="370" y="993.7207">и</text><text fill="#000000" font-family="sans-serif" font-size="14" lengthAdjust="spacingAndGlyphs" textLength="213" x="267.5" y="1011.3301">Score ≤ минимальное значение</text><text fill="#000000" font-family="sans-serif" font-size="14" lengthAdjust="spacingAndGlyphs" textLength="24" x="655" y="984.916">Нет</text><polygon fill="#F8F8F8" filter="url(#f14vlibbnacfby)" points="374,1158.4531,386,1170.4531,374,1182.4531,362,1170.4531,374,1158.4531" style="stroke: #383838; stroke-width: 1.5;"/><rect fill="#F8F8F8" filter="url(#f14vlibbnacfby)" height="55.2188" rx="12.5" ry="12.5" style="stroke: #383838; stroke-width: 1.5;" width="219" x="264.5" y="107.6094"/><text fill="#000000" font-family="sans-serif" font-size="14" lengthAdjust="spacingAndGlyphs" textLength="195" x="274.5" y="132.1426">Получение раскладки на вход</text><text fill="#000000" font-family="sans-serif" font-size="14" lengthAdjust="spacingAndGlyphs" textLength="70" x="339" y="149.752">алгоритма</text><polygon fill="#F8F8F8" filter="url(#f14vlibbnacfby)" points="225,1214.4531,523,1214.4531,535,1226.4531,523,1238.4531,225,1238.4531,213,1226.4531,225,1214.4531" style="stroke: #383838; stroke-width: 1.5;"/><text fill="#000000" font-family="sans-serif" font-size="14" lengthAdjust="spacingAndGlyphs" textLength="17" x="378" y="1252.9863">Да</text><text fill="#000000" font-family="sans-serif" font-size="14" lengthAdjust="spacingAndGlyphs" textLength="298" x="225" y="1232.1816">Условие завершения алгоритма выполнено?</text><text fill="#000000" font-family="sans-serif" font-size="14" lengthAdjust="spacingAndGlyphs" textLength="24" x="535" y="1223.377">Нет</text><ellipse cx="374" cy="1284.4531" fill="#FFFFFF" filter="url(#f14vlibbnacfby)" rx="11" ry="11" style="stroke: #000000; stroke-width: 1.0;"/><ellipse cx="374" cy="1284.4531" fill="#000000" rx="6" ry="6" style="stroke: #7F7F7F; stroke-width: 1.0;"/><line style="stroke: #383838; stroke-width: 1.5;" x1="374" x2="374" y1="30" y2="50"/><polygon fill="#383838" points="370,40,374,50,378,40,374,44" style="stroke: #383838; stroke-width: 1.0;"/><line style="stroke: #383838; stroke-width: 1.5;" x1="597.5" x2="597.5" y1="414.875" y2="449.875"/><polygon fill="#383838" points="593.5,439.875,597.5,449.875,601.5,439.875,597.5,443.875" style="stroke: #383838; stroke-width: 1.0;"/><line style="stroke: #383838; stroke-width: 1.5;" x1="160.5" x2="150.5" y1="355.2656" y2="355.2656"/><line style="stroke: #383838; stroke-width: 1.5;" x1="150.5" x2="150.5" y1="355.2656" y2="377.2656"/><polygon fill="#383838" points="146.5,367.2656,150.5,377.2656,154.5,367.2656,150.5,371.2656" style="stroke: #383838; stroke-width: 1.0;"/><line style="stroke: #383838; stroke-width: 1.5;" x1="587.5" x2="597.5" y1="355.2656" y2="355.2656"/><line style="stroke: #383838; stroke-width: 1.5;" x1="597.5" x2="597.5" y1="355.2656" y2="377.2656"/><polygon fill="#383838" points="593.5,367.2656,597.5,377.2656,601.5,367.2656,597.5,371.2656" style="stroke: #383838; stroke-width: 1.0;"/><line style="stroke: #383838; stroke-width: 1.5;" x1="150.5" x2="150.5" y1="450.0938" y2="540.7031"/><line style="stroke: #383838; stroke-width: 1.5;" x1="150.5" x2="362" y1="540.7031" y2="540.7031"/><polygon fill="#383838" points="352,536.7031,362,540.7031,352,544.7031,356,540.7031" style="stroke: #383838; stroke-width: 1.0;"/><line style="stroke: #383838; stroke-width: 1.5;" x1="597.5" x2="597.5" y1="522.7031" y2="540.7031"/><line style="stroke: #383838; stroke-width: 1.5;" x1="597.5" x2="386" y1="540.7031" y2="540.7031"/><polygon fill="#383838" points="396,536.7031,386,540.7031,396,544.7031,392,540.7031" style="stroke: #383838; stroke-width: 1.0;"/><line style="stroke: #383838; stroke-width: 1.5;" x1="374" x2="374" y1="323.2656" y2="343.2656"/><polygon fill="#383838" points="370,333.2656,374,343.2656,378,333.2656,374,337.2656" style="stroke: #383838; stroke-width: 1.0;"/><line style="stroke: #383838; stroke-width: 1.5;" x1="374" x2="374" y1="596.7031" y2="623.5078"/><polygon fill="#383838" points="370,613.5078,374,623.5078,378,613.5078,374,617.5078" style="stroke: #383838; stroke-width: 1.0;"/><line style="stroke: #383838; stroke-width: 1.5;" x1="651" x2="663" y1="584.7031" y2="584.7031"/><polygon fill="#383838" points="659,641.1172,663,651.1172,667,641.1172,663,645.1172" style="stroke: #383838; stroke-width: 1.5;"/><line style="stroke: #383838; stroke-width: 1.5;" x1="663" x2="663" y1="584.7031" y2="717.5313"/><line style="stroke: #383838; stroke-width: 1.5;" x1="663" x2="386" y1="717.5313" y2="717.5313"/><polygon fill="#383838" points="396,713.5313,386,717.5313,396,721.5313,392,717.5313" style="stroke: #383838; stroke-width: 1.0;"/><line style="stroke: #383838; stroke-width: 1.5;" x1="374" x2="374" y1="678.7266" y2="705.5313"/><polygon fill="#383838" points="370,695.5313,374,705.5313,378,695.5313,374,699.5313" style="stroke: #383838; stroke-width: 1.0;"/><line style="stroke: #383838; stroke-width: 1.5;" x1="374" x2="374" y1="552.7031" y2="572.7031"/><polygon fill="#383838" points="370,562.7031,374,572.7031,378,562.7031,374,566.7031" style="stroke: #383838; stroke-width: 1.0;"/><line style="stroke: #383838; stroke-width: 1.5;" x1="374" x2="374" y1="773.5313" y2="800.3359"/><polygon fill="#383838" points="370,790.3359,374,800.3359,378,790.3359,374,794.3359" style="stroke: #383838; stroke-width: 1.0;"/><line style="stroke: #383838; stroke-width: 1.5;" x1="655" x2="667" y1="761.5313" y2="761.5313"/><polygon fill="#383838" points="663,835.5547,667,845.5547,671,835.5547,667,839.5547" style="stroke: #383838; stroke-width: 1.5;"/><line style="stroke: #383838; stroke-width: 1.5;" x1="667" x2="667" y1="761.5313" y2="929.5781"/><line style="stroke: #383838; stroke-width: 1.5;" x1="667" x2="386" y1="929.5781" y2="929.5781"/><polygon fill="#383838" points="396,925.5781,386,929.5781,396,933.5781,392,929.5781" style="stroke: #383838; stroke-width: 1.0;"/><line style="stroke: #383838; stroke-width: 1.5;" x1="374" x2="374" y1="890.7734" y2="917.5781"/><polygon fill="#383838" points="370,907.5781,374,917.5781,378,907.5781,374,911.5781" style="stroke: #383838; stroke-width: 1.0;"/><line style="stroke: #383838; stroke-width: 1.5;" x1="374" x2="374" y1="729.5313" y2="749.5313"/><polygon fill="#383838" points="370,739.5313,374,749.5313,378,739.5313,374,743.5313" style="stroke: #383838; stroke-width: 1.0;"/><line style="stroke: #383838; stroke-width: 1.5;" x1="374" x2="374" y1="1014.4063" y2="1041.2109"/><polygon fill="#383838" points="370,1031.2109,374,1041.2109,378,1031.2109,374,1035.2109" style="stroke: #383838; stroke-width: 1.0;"/><line style="stroke: #383838; stroke-width: 1.5;" x1="655" x2="667" y1="987.9922" y2="987.9922"/><polygon fill="#383838" points="663,1069.2227,667,1079.2227,671,1069.2227,667,1073.2227" style="stroke: #383838; stroke-width: 1.5;"/><line style="stroke: #383838; stroke-width: 1.5;" x1="667" x2="667" y1="987.9922" y2="1170.4531"/><line style="stroke: #383838; stroke-width: 1.5;" x1="667" x2="386" y1="1170.4531" y2="1170.4531"/><polygon fill="#383838" points="396,1166.4531,386,1170.4531,396,1174.4531,392,1170.4531" style="stroke: #383838; stroke-width: 1.0;"/><line style="stroke: #383838; stroke-width: 1.5;" x1="374" x2="374" y1="1131.6484" y2="1158.4531"/><polygon fill="#383838" points="370,1148.4531,374,1158.4531,378,1148.4531,374,1152.4531" style="stroke: #383838; stroke-width: 1.0;"/><line style="stroke: #383838; stroke-width: 1.5;" x1="374" x2="374" y1="941.5781" y2="961.5781"/><polygon fill="#383838" points="370,951.5781,374,961.5781,378,951.5781,374,955.5781" style="stroke: #383838; stroke-width: 1.0;"/><line style="stroke: #383838; stroke-width: 1.5;" x1="374" x2="374" y1="220.4375" y2="268.0469"/><polygon fill="#383838" points="370,258.0469,374,268.0469,378,258.0469,374,262.0469" style="stroke: #383838; stroke-width: 1.0;"/><line style="stroke: #383838; stroke-width: 1.5;" x1="374" x2="374" y1="162.8281" y2="182.8281"/><polygon fill="#383838" points="370,172.8281,374,182.8281,378,172.8281,374,176.8281" style="stroke: #383838; stroke-width: 1.0;"/><line style="stroke: #383838; stroke-width: 1.5;" x1="535" x2="978" y1="1226.4531" y2="1226.4531"/><polygon fill="#383838" points="974,682.3359,978,672.3359,982,682.3359,978,678.3359" style="stroke: #383838; stroke-width: 1.5;"/><line style="stroke: #383838; stroke-width: 1.5;" x1="978" x2="978" y1="135.2188" y2="1226.4531"/><line style="stroke: #383838; stroke-width: 1.5;" x1="978" x2="483.5" y1="135.2188" y2="135.2188"/><polygon fill="#383838" points="493.5,131.2188,483.5,135.2188,493.5,139.2188,489.5,135.2188" style="stroke: #383838; stroke-width: 1.0;"/><line style="stroke: #383838; stroke-width: 1.5;" x1="374" x2="374" y1="1182.4531" y2="1214.4531"/><polygon fill="#383838" points="370,1204.4531,374,1214.4531,378,1204.4531,374,1208.4531" style="stroke: #383838; stroke-width: 1.0;"/><line style="stroke: #383838; stroke-width: 1.5;" x1="374" x2="374" y1="87.6094" y2="107.6094"/><polygon fill="#383838" points="370,97.6094,374,107.6094,378,97.6094,374,101.6094" style="stroke: #383838; stroke-width: 1.0;"/><line style="stroke: #383838; stroke-width: 1.5;" x1="374" x2="374" y1="1238.4531" y2="1273.4531"/><polygon fill="#383838" points="370,1263.4531,374,1273.4531,378,1263.4531,374,1267.4531" style="stroke: #383838; stroke-width: 1.0;"/><!--MD5=[2dbd590cf36dbb9a3a7f9b4183ca3849]
@startuml "Детализаци алгоритма оптимизации"
skinparam monochrome true
skinparam wrapWidth 250
skinparam defaultTextAlignment center
skinparam defaultFontSize 14
skinparam noteFontSize 14
start
:Исходная раскладка "ЙЦУКЕН";
repeat:Получение раскладки на вход алгоритма;
:Алгоритм производных раскладок;
partition "Алгоритм оптимизации" {
    :Выбор раскладки с наилучшим целевым параметром Score;
    if (Целевое значение Score у раскладки меньше минимального) then (Нет)
        :Количество итераций, где целевое значение Score больше минимального + 1;
    else (Да)
        :Обновить минимальное значение;
        :Количество итераций, где целевое значение Score больше минимального := 0;
    endif 
    if (Количество итераций, где целевое значение Score больше минимального ≥ 10) then (Да)
        :Выбор случайной раскладки из пройденных итераций;
    else (Нет)
    endif
    note right
        Если мы получили 10 итераций подряд, где целевое значение Score не опускается ниже минального, выбираем для подачи на вход алгоритма случайную из ранее полученных раскладок.
    end note
    if (Количество итераций, где целевое значение Score больше минимального ≥ 100) then (Да)
        :Выбор случайной раскладки из пройденных итераций, у которой Score равняется минимальному значению;
    else (Нет)
    endif
    note right
        Если мы получили 100 итераций подряд, где целевое значение Score не опускается ниже минального, выбираем для подачи на вход алгоритма случайную из ранее полученных раскладок, где Score равен минимальному значению.
    end note
    if (Количество итераций, где целевое значение Score больше минимального ≥ 300\nи\nScore ≤ минимальное значение) then (Да)
        :**Условие завершение алогоритма выполнено**
        //Полученная раскладка является близкой к оптимальной//;
    else (Нет)
    endif
    note right
        Если мы получили 300 итераций подряд, где целевое значение Score не опускается ниже минального, предполагаем, что алгоритм не способен найти более оптимальную раскладку — следовательно завершаем работу алгоритма оптимизации.
    end note
}
repeat while (Условие завершения алгоритма выполнено?) is (Нет) not (Да)
stop
@enduml

PlantUML version 1.2020.10(Sun May 17 12:35:57 MSK 2020)
(GPL source distribution)
Java Runtime: Java(TM) SE Runtime Environment
JVM: Java HotSpot(TM) 64-Bit Server VM
Java Version: 1.8.0_231-b11
Operating System: Windows 10
Default Encoding: Cp1251
Language: ru
Country: RU
--></g></svg>